<svg width="193" height="29" viewBox="0 0 193 29" fill="none" xmlns="http://www.w3.org/2000/svg">
<path d="M0.592651 28.3153V0H9.19569C10.9124 0 12.473 0.322097 13.8776 0.966292C15.3017 1.63001 16.4234 2.56702 17.2428 3.77732C18.0621 5.00715 18.4718 6.44195 18.4718 8.08172C18.4718 9.29202 18.2377 10.395 17.7695 11.3905C17.2818 12.4056 16.599 13.2548 15.7211 13.938C14.8433 14.6213 13.8289 15.1191 12.6779 15.4314L20.4323 28.3153H15.7504L8.7275 15.8706H4.66008V28.3153H0.592651ZM4.68934 12.3861H9.66389C11.127 12.308 12.2975 11.8981 13.1753 11.1563C14.0337 10.4145 14.4629 9.39939 14.4629 8.111C14.4629 7.19351 14.2483 6.39315 13.8191 5.70991C13.3899 5.04619 12.7754 4.53865 11.9756 4.18727C11.1758 3.81637 10.2589 3.63092 9.22496 3.63092H4.68934V12.3861ZM32.5175 28.6081C30.4497 28.6081 28.694 28.1396 27.2504 27.2026C25.8263 26.2656 24.7533 25.026 24.0315 23.4838C23.3293 21.9417 22.9781 20.2336 22.9781 18.3596C22.9781 16.5441 23.3195 14.836 24.0023 13.2353C24.6851 11.6541 25.719 10.3754 27.1041 9.39939C28.4891 8.42333 30.1766 7.93531 32.1664 7.93531C34.2733 7.93531 35.99 8.42333 37.3165 9.39939C38.6236 10.3559 39.5697 11.5857 40.1549 13.0889C40.7207 14.592 41.0035 16.1732 41.0035 17.8325C41.0035 18.5548 40.9645 19.1306 40.8865 19.5601H27.0748C27.1723 21.2194 27.6698 22.5663 28.5672 23.601C29.484 24.6356 30.8008 25.1529 32.5175 25.1529C33.5905 25.1529 34.5464 24.9869 35.3852 24.6551C36.2436 24.3232 37.0239 23.7766 37.7262 23.0153L40.4183 25.27C39.3258 26.4217 38.1359 27.2612 36.8483 27.7882C35.5803 28.3348 34.1367 28.6081 32.5175 28.6081ZM27.0748 16.6027H37.258C37.1605 14.9824 36.6923 13.6647 35.8534 12.6496C34.9951 11.6541 33.7563 11.1563 32.1371 11.1563C30.596 11.1563 29.406 11.6638 28.5672 12.6789C27.7088 13.694 27.2114 15.0019 27.0748 16.6027ZM58.3852 0H62.3063V28.286H58.6193L58.5022 25.7678C57.8195 26.7243 56.9611 27.4466 55.9272 27.9346C54.9128 28.4227 53.752 28.6667 52.445 28.6667C50.7088 28.6667 49.2164 28.1982 47.9679 27.2612C46.7194 26.3437 45.7635 25.0943 45.1002 23.5131C44.4565 21.9319 44.1346 20.1848 44.1346 18.2717C44.1346 16.3586 44.4565 14.6115 45.1002 13.0303C45.7635 11.4491 46.7194 10.19 47.9679 9.25298C49.2164 8.31597 50.6893 7.84746 52.3865 7.84746C53.6545 7.84746 54.8055 8.09148 55.8394 8.5795C56.8538 9.06753 57.7024 9.76053 58.3852 10.6585V0ZM53.4106 25.27C54.6201 25.27 55.6151 24.9577 56.3954 24.333C57.1952 23.7083 57.7804 22.8689 58.1511 21.8148C58.5218 20.7606 58.7071 19.5796 58.7071 18.2717C58.7071 16.9638 58.5218 15.7828 58.1511 14.7286C57.7804 13.6745 57.1952 12.8351 56.3954 12.2104C55.6151 11.5857 54.6201 11.2734 53.4106 11.2734C52.2207 11.2734 51.2257 11.5955 50.4259 12.2397C49.6261 12.8644 49.0311 13.7038 48.6409 14.7579C48.2703 15.8121 48.085 16.9833 48.085 18.2717C48.085 19.5601 48.2703 20.7314 48.6409 21.7855C49.0311 22.8592 49.6261 23.7083 50.4259 24.333C51.2257 24.9577 52.2207 25.27 53.4106 25.27ZM79.805 28.286V0H83.8724V12.3275H97.2452V0H101.342V28.286H97.2452V15.9292H83.8724V28.286H79.805ZM116.324 28.6081C114.256 28.6081 112.5 28.1396 111.057 27.2026C109.633 26.2656 108.56 25.026 107.838 23.4838C107.136 21.9417 106.785 20.2336 106.785 18.3596C106.785 16.5441 107.126 14.836 107.809 13.2353C108.492 11.6541 109.525 10.3754 110.911 9.39939C112.296 8.42333 113.983 7.93531 115.973 7.93531C118.08 7.93531 119.796 8.42333 121.123 9.39939C122.45 10.3559 123.396 11.5857 123.961 13.0889C124.527 14.592 124.81 16.1732 124.81 17.8325C124.81 18.5548 124.771 19.1306 124.693 19.5601H110.881C110.979 21.2194 111.486 22.5663 112.403 23.601C113.3 24.6356 114.607 25.1529 116.324 25.1529C117.397 25.1529 118.363 24.9869 119.221 24.6551C120.06 24.3232 120.83 23.7766 121.533 23.0153L124.225 25.27C123.132 26.4217 121.952 27.2612 120.684 27.7882C119.397 28.3348 117.943 28.6081 116.324 28.6081ZM110.881 16.6027H121.065C120.967 14.9824 120.499 13.6647 119.66 12.6496C118.802 11.6541 117.573 11.1563 115.973 11.1563C114.412 11.1563 113.213 11.6638 112.374 12.6789C111.535 13.694 111.037 15.0019 110.881 16.6027ZM134.496 28.6667C133.189 28.6667 132.018 28.4227 130.984 27.9346C129.95 27.4466 129.141 26.7243 128.556 25.7678C127.97 24.8308 127.678 23.7181 127.678 22.4297C127.678 20.419 128.4 18.9452 129.843 18.0082C131.306 17.0712 133.384 16.6027 136.076 16.6027H140.933C140.933 14.9434 140.563 13.6355 139.821 12.6789C139.1 11.7224 137.978 11.2441 136.456 11.2441C135.286 11.2441 134.271 11.5174 133.413 12.064C132.574 12.6301 131.882 13.3329 131.335 14.1723L128.439 12.0054C129.394 10.6585 130.516 9.63364 131.804 8.93088C133.111 8.2086 134.632 7.84746 136.369 7.84746C138.085 7.84746 139.558 8.18908 140.787 8.87232C142.036 9.57508 142.972 10.5414 143.596 11.7712C144.24 13.001 144.562 14.4358 144.562 16.0756V28.286H141.343L141.138 24.8893C140.397 26.2168 139.461 27.1733 138.329 27.7589C137.178 28.3641 135.9 28.6667 134.496 28.6667ZM134.993 25.3871C136.125 25.3871 137.139 25.1041 138.036 24.538C138.914 23.9523 139.617 23.2008 140.143 22.2833C140.651 21.3853 140.914 20.4483 140.933 19.4723H136.339C134.779 19.4723 133.608 19.726 132.828 20.2336C132.048 20.7606 131.657 21.5317 131.657 22.5468C131.657 23.4643 131.96 24.1671 132.564 24.6551C133.169 25.1431 133.979 25.3871 134.993 25.3871ZM153.897 28.6667C152.589 28.6667 151.653 28.3055 151.087 27.5832C150.522 26.861 150.239 25.758 150.239 24.2744V0H154.101V24.0109C154.101 24.2451 154.209 24.5087 154.423 24.8015C154.618 25.0943 154.94 25.2407 155.389 25.2407C155.994 25.2407 156.55 25.1822 157.057 25.065V28.286C156.589 28.3836 156.072 28.4715 155.506 28.5495C154.94 28.6276 154.404 28.6667 153.897 28.6667ZM167.474 28.6667C165.66 28.6667 164.285 28.1591 163.348 27.144C162.431 26.1094 161.973 24.6844 161.973 22.8689V11.5077H158.754V8.28669H162.002V3.54307L165.806 0.439223V8.28669H170.869V11.5077H165.806V22.459C165.806 23.4545 166.031 24.1866 166.479 24.6551C166.908 25.1236 167.484 25.3578 168.206 25.3578C168.596 25.3578 169.005 25.2993 169.435 25.1822C169.844 25.0455 170.234 24.8991 170.605 24.7429V28.1689C170.274 28.3055 169.825 28.4227 169.259 28.5203C168.674 28.6179 168.079 28.6667 167.474 28.6667ZM175.463 28.286V0H179.354V11.127C180.057 10.0924 180.964 9.29202 182.076 8.72591C183.188 8.17932 184.329 7.90603 185.5 7.90603C187.099 7.90603 188.426 8.27693 189.479 9.01873C190.533 9.78005 191.303 10.7756 191.791 12.0054C192.298 13.2353 192.552 14.592 192.552 16.0756V28.286H188.601V16.6319C188.601 13.1767 187.294 11.4491 184.68 11.4491C183.588 11.4491 182.642 11.7322 181.842 12.2983C181.042 12.8644 180.427 13.6257 179.998 14.5822C179.569 15.5388 179.354 16.6124 179.354 17.8032V28.286H175.463Z" fill="#FF1414"/>
</svg>
