<svg width="35" height="45" viewBox="0 0 35 45" fill="none" xmlns="http://www.w3.org/2000/svg">
<path d="M17.0121 44.2801C7.63165 44.2801 1.31169e-05 37.1048 1.31169e-05 28.2852C-0.00404523 25.2173 0.933709 22.2134 2.70071 19.6343L15.6432 0.703066C15.7905 0.487447 15.993 0.310071 16.2322 0.187225C16.4714 0.0643786 16.7396 0 17.0121 0C17.2847 0 17.5529 0.0643786 17.792 0.187225C18.0312 0.310071 18.2338 0.487447 18.381 0.703066L31.3241 19.6363L31.3387 19.6584C33.0954 22.2324 34.0273 25.2273 34.0232 28.2857C34.0242 37.1048 26.3926 44.2801 17.0121 44.2801ZM17.0121 4.36011L5.43803 21.2909C4.00983 23.3763 3.25197 25.8048 3.25539 28.2852C3.25539 35.4177 9.42653 41.2199 17.0121 41.2199C24.5977 41.2199 30.7689 35.4177 30.7689 28.2857C30.7689 25.7951 30.0148 23.3779 28.5883 21.2948L28.5726 21.2717L17.0121 4.36011V4.36011Z" fill="#FF1414"/>
<path d="M17.0121 37.5465C11.5678 37.5465 7.13873 33.3822 7.13873 28.2634C7.13873 28.1295 7.16679 27.9969 7.22131 27.8731C7.27582 27.7494 7.35573 27.637 7.45646 27.5423C7.55719 27.4475 7.67677 27.3724 7.80838 27.3212C7.94 27.2699 8.08106 27.2435 8.22351 27.2435C8.36597 27.2435 8.50702 27.2699 8.63864 27.3212C8.77025 27.3724 8.88983 27.4475 8.99056 27.5423C9.09129 27.637 9.1712 27.7494 9.22571 27.8731C9.28023 27.9969 9.30829 28.1295 9.30829 28.2634C9.30829 32.2575 12.7641 35.5067 17.0116 35.5067C17.2993 35.5066 17.5753 35.614 17.7787 35.8052C17.9822 35.9965 18.0966 36.2559 18.0967 36.5264C18.0967 36.7969 17.9825 37.0563 17.7791 37.2476C17.5757 37.439 17.2998 37.5465 17.0121 37.5465V37.5465Z" fill="#FF1414"/>
</svg>
