<svg width="512" height="512" viewBox="0 0 512 512" fill="none" xmlns="http://www.w3.org/2000/svg">
<path d="M450.207 317.793C450.207 425.05 363.256 512 256 512C148.743 512 61.793 425.05 61.793 317.793C61.793 176.552 256 0 256 0C256 0 450.207 176.552 450.207 317.793Z" fill="#D80027"/>
<path d="M450.207 317.793C450.207 425.05 363.256 512 256 512C256 300.138 256 0 256 0C256 0 450.207 176.552 450.207 317.793Z" fill="#A2001D"/>
<g clip-path="url(#clip0_2_7)">
<path d="M184.998 350.191C179.004 344.6 169.893 343.651 162.834 347.336V289.769C162.834 286.845 162.049 284.09 160.669 281.673C161.5 281.443 162.369 281.322 163.256 281.322C168.25 281.322 172.313 285.111 172.313 289.769V332.267C172.313 334.708 174.435 336.688 177.052 336.688C179.67 336.688 181.792 334.708 181.792 332.267V289.769C181.792 280.237 173.476 272.481 163.256 272.481C159.875 272.481 156.615 273.333 153.771 274.917C150.996 273.372 147.757 272.481 144.298 272.481C134.078 272.481 125.762 280.236 125.762 289.773L125.839 370.895C125.842 374.596 127.312 379.822 129.257 383.05C129.289 383.103 129.322 383.155 129.357 383.207L183.95 465.659C185.084 467.587 186.106 471.255 186.106 473.417V489.58C186.106 492.021 188.228 494 190.845 494C193.462 494 195.584 492.021 195.584 489.58V473.417C195.584 469.714 194.117 464.486 192.171 461.257C192.139 461.204 192.106 461.153 192.072 461.101L137.479 378.649C136.345 376.72 135.321 373.051 135.319 370.888L135.242 289.77C135.242 285.112 139.305 281.322 144.299 281.322C149.293 281.322 153.356 285.111 153.356 289.77V362.416C153.356 362.519 153.365 362.621 153.372 362.723C153.454 367.047 155.255 371.347 158.785 374.64L201.235 414.23C203.086 415.957 206.087 415.957 207.937 414.23C209.788 412.504 209.788 409.706 207.937 407.98L165.487 368.389C161.956 365.095 161.956 359.736 165.487 356.443C169.018 353.15 174.764 353.15 178.296 356.443L230.527 405.157C236.357 410.595 241.283 421.685 241.283 429.375V489.58C241.283 492.021 243.405 494 246.023 494C248.64 494 250.762 492.021 250.762 489.58V429.375C250.762 419.366 244.818 405.982 237.229 398.905L184.998 350.191Z" fill="white"/>
<path d="M366.702 272.482C363.243 272.482 360.004 273.372 357.229 274.918C354.385 273.334 351.125 272.482 347.744 272.482C337.524 272.482 329.208 280.237 329.208 289.77V332.268C329.208 334.709 331.33 336.688 333.948 336.688C336.565 336.688 338.687 334.709 338.687 332.268V289.77C338.687 285.112 342.75 281.322 347.744 281.322C348.631 281.322 349.501 281.443 350.331 281.674C348.951 284.091 348.166 286.846 348.166 289.77V347.337C341.108 343.653 331.997 344.601 326.002 350.192L273.771 398.906C266.183 405.983 260.238 419.367 260.238 429.376V489.58C260.238 492.021 262.36 494 264.977 494C267.595 494 269.717 492.021 269.717 489.58V429.375C269.717 421.685 274.643 410.594 280.473 405.157L332.704 356.442C336.235 353.149 341.981 353.149 345.513 356.442C349.044 359.736 349.044 365.095 345.513 368.389L303.063 407.98C301.212 409.706 301.212 412.504 303.063 414.23C304.914 415.957 307.915 415.957 309.765 414.23L352.215 374.639C355.745 371.347 357.545 367.047 357.628 362.723C357.635 362.621 357.644 362.519 357.644 362.416V289.769C357.644 285.111 361.707 281.322 366.701 281.322C371.695 281.322 375.758 285.111 375.758 289.765L375.681 370.887C375.679 373.05 374.655 376.719 373.521 378.648L318.928 461.101C318.894 461.152 318.861 461.204 318.829 461.257C316.883 464.486 315.416 469.714 315.416 473.416V489.58C315.416 492.021 317.538 494 320.155 494C322.772 494 324.894 492.021 324.894 489.58V473.416C324.894 471.255 325.916 467.588 327.05 465.659L381.643 383.207C381.678 383.156 381.71 383.103 381.743 383.05C383.688 379.822 385.158 374.597 385.161 370.895L385.238 289.769C385.237 280.237 376.922 272.482 366.702 272.482Z" fill="white"/>
</g>
<path d="M322.43 193.599C313.884 184.248 302.501 179.074 290.408 179.074C278.315 179.074 266.898 184.248 258.352 193.636L255.886 196.334L253.353 193.562C244.773 184.174 233.39 179 221.263 179C209.171 179 197.821 184.137 189.275 193.525C180.695 202.913 176 215.368 176 228.6C176 241.831 180.729 254.286 189.309 263.637L251.022 331.162C252.306 332.566 254.062 333.38 255.92 333.38C257.744 333.38 259.501 332.566 260.818 331.162L322.363 263.748C330.943 254.36 335.638 241.905 335.672 228.673C335.705 215.442 330.976 202.987 322.43 193.599ZM220.757 212.153C212.684 212.153 206.097 219.36 206.097 228.193C206.097 232.259 203.09 235.548 199.375 235.548C195.659 235.548 192.653 232.259 192.653 228.193C192.653 211.266 205.252 197.48 220.723 197.48C224.439 197.48 227.445 200.769 227.445 204.835C227.479 208.9 224.472 212.153 220.757 212.153Z" fill="white"/>
<defs>
<clipPath id="clip0_2_7">
<rect width="297" height="277" fill="white" transform="translate(107 217)"/>
</clipPath>
</defs>
</svg>
