<svg width="488" height="90" viewBox="0 0 488 90" fill="none" xmlns="http://www.w3.org/2000/svg">
<g clip-path="url(#clip0_2_100)">
<path d="M85.0181 59.2646V0H103.036C106.632 0 109.901 0.674157 112.842 2.02247C115.825 3.41164 118.174 5.37283 119.89 7.90602C121.606 10.4801 122.464 13.4831 122.464 16.9152C122.464 19.4484 121.974 21.7569 120.994 23.8407C119.972 25.9653 118.542 27.7426 116.703 29.1726C114.865 30.6027 112.74 31.6445 110.33 32.2983L126.571 59.2646H116.765L102.056 33.2176H93.5369V59.2646H85.0181ZM93.5982 25.9244H104.017C107.081 25.761 109.533 24.903 111.371 23.3504C113.169 21.7978 114.068 19.6731 114.068 16.9765C114.068 15.0562 113.619 13.381 112.72 11.951C111.821 10.5618 110.534 9.49949 108.859 8.76405C107.184 7.98774 105.263 7.59959 103.098 7.59959H93.5982V25.9244ZM151.882 59.8774C147.551 59.8774 143.874 58.8968 140.851 56.9356C137.868 54.9745 135.621 52.38 134.109 49.1522C132.638 45.9244 131.903 42.3493 131.903 38.427C131.903 34.6272 132.618 31.0521 134.048 27.7017C135.478 24.3922 137.643 21.716 140.544 19.6731C143.445 17.6302 146.979 16.6088 151.147 16.6088C155.559 16.6088 159.155 17.6302 161.933 19.6731C164.671 21.6752 166.652 24.2492 167.878 27.3953C169.063 30.5414 169.655 33.8509 169.655 37.3238C169.655 38.8355 169.574 40.0409 169.41 40.9397H140.483C140.687 44.4127 141.729 47.2319 143.608 49.3973C145.529 51.5628 148.287 52.6456 151.882 52.6456C154.129 52.6456 156.131 52.2983 157.888 51.6037C159.686 50.9091 161.32 49.7651 162.791 48.1716L168.43 52.8907C166.142 55.3013 163.649 57.0582 160.953 58.1614C158.297 59.3054 155.273 59.8774 151.882 59.8774ZM140.483 34.7497H161.811C161.606 31.3585 160.626 28.6006 158.869 26.476C157.071 24.3922 154.477 23.3504 151.085 23.3504C147.858 23.3504 145.365 24.4127 143.608 26.5373C141.811 28.6619 140.769 31.3994 140.483 34.7497ZM206.06 0H214.272V59.2033H206.55L206.305 53.9326C204.875 55.9346 203.077 57.4464 200.912 58.4678C198.787 59.4893 196.356 60 193.619 60C189.982 60 186.857 59.0194 184.242 57.0582C181.627 55.1379 179.625 52.523 178.236 49.2135C176.887 45.904 176.213 42.2472 176.213 38.2431C176.213 34.239 176.887 30.5822 178.236 27.2727C179.625 23.9632 181.627 21.3279 184.242 19.3667C186.857 17.4055 189.941 16.4249 193.496 16.4249C196.152 16.4249 198.562 16.9356 200.728 17.9571C202.853 18.9785 204.63 20.429 206.06 22.3085V0ZM195.641 52.8907C198.174 52.8907 200.258 52.237 201.892 50.9295C203.568 49.6221 204.793 47.8652 205.57 45.6588C206.346 43.4525 206.734 40.9806 206.734 38.2431C206.734 35.5056 206.346 33.0337 205.57 30.8274C204.793 28.621 203.568 26.8641 201.892 25.5567C200.258 24.2492 198.174 23.5955 195.641 23.5955C193.149 23.5955 191.065 24.2697 189.39 25.618C187.715 26.9254 186.469 28.6823 185.651 30.8887C184.875 33.095 184.487 35.5465 184.487 38.2431C184.487 40.9397 184.875 43.3912 185.651 45.5976C186.469 47.8447 187.715 49.6221 189.39 50.9295C191.065 52.237 193.149 52.8907 195.641 52.8907ZM250.922 59.2033V0H259.441V25.8018H287.449V0H296.029V59.2033H287.449V33.3401H259.441V59.2033H250.922ZM327.408 59.8774C323.077 59.8774 319.4 58.8968 316.377 56.9356C313.394 54.9745 311.147 52.38 309.635 49.1522C308.164 45.9244 307.429 42.3493 307.429 38.427C307.429 34.6272 308.144 31.0521 309.574 27.7017C311.004 24.3922 313.169 21.716 316.07 19.6731C318.971 17.6302 322.505 16.6088 326.673 16.6088C331.085 16.6088 334.681 17.6302 337.459 19.6731C340.238 21.6752 342.219 24.2492 343.404 27.3953C344.589 30.5414 345.182 33.8509 345.182 37.3238C345.182 38.8355 345.1 40.0409 344.936 40.9397H316.009C316.213 44.4127 317.275 47.2319 319.196 49.3973C321.075 51.5628 323.813 52.6456 327.408 52.6456C329.655 52.6456 331.678 52.2983 333.476 51.6037C335.233 50.9091 336.846 49.7651 338.317 48.1716L343.956 52.8907C341.668 55.3013 339.196 57.0582 336.54 58.1614C333.843 59.3054 330.799 59.8774 327.408 59.8774ZM316.009 34.7497H337.337C337.132 31.3585 336.152 28.6006 334.395 26.476C332.597 24.3922 330.023 23.3504 326.673 23.3504C323.404 23.3504 320.891 24.4127 319.135 26.5373C317.378 28.6619 316.336 31.3994 316.009 34.7497ZM365.468 60C362.73 60 360.279 59.4893 358.113 58.4678C355.948 57.4464 354.252 55.9346 353.026 53.9326C351.801 51.9714 351.188 49.6425 351.188 46.9459C351.188 42.7375 352.699 39.6527 355.723 37.6915C358.787 35.7303 363.139 34.7497 368.777 34.7497H378.951C378.951 31.2768 378.174 28.5393 376.622 26.5373C375.11 24.5352 372.761 23.5342 369.574 23.5342C367.122 23.5342 364.998 24.1062 363.2 25.2503C361.443 26.4351 359.993 27.906 358.849 29.6629L352.781 25.1277C354.783 22.3085 357.132 20.1634 359.829 18.6925C362.567 17.1808 365.754 16.4249 369.39 16.4249C372.985 16.4249 376.07 17.1399 378.644 18.57C381.259 20.0409 383.22 22.0633 384.528 24.6374C385.876 27.2114 386.55 30.2145 386.55 33.6466V59.2033H379.809L379.38 52.094C377.827 54.8723 375.866 56.8744 373.496 58.1001C371.085 59.3667 368.409 60 365.468 60ZM366.509 53.1359C368.879 53.1359 371.004 52.5434 372.883 51.3585C374.722 50.1328 376.193 48.5598 377.296 46.6394C378.358 44.76 378.91 42.7988 378.951 40.7559H369.329C366.06 40.7559 363.608 41.287 361.974 42.3493C360.34 43.4525 359.523 45.0664 359.523 47.191C359.523 49.1113 360.156 50.5822 361.423 51.6037C362.689 52.6251 364.385 53.1359 366.509 53.1359ZM406.101 60C403.363 60 401.402 59.2441 400.217 57.7324C399.032 56.2206 398.44 53.9122 398.44 50.8069V0H406.53V50.2554C406.53 50.7457 406.755 51.2972 407.204 51.9101C407.613 52.523 408.287 52.8294 409.226 52.8294C410.493 52.8294 411.658 52.7068 412.72 52.4617V59.2033C411.739 59.4076 410.656 59.5914 409.472 59.7549C408.287 59.9183 407.163 60 406.101 60ZM434.538 60C430.738 60 427.858 58.9377 425.897 56.8131C423.976 54.6476 423.016 51.665 423.016 47.8652V24.0858H416.274V17.3442H423.077V7.41573L431.045 0.919305V17.3442H441.647V24.0858H431.045V47.0071C431.045 49.0909 431.515 50.6231 432.454 51.6037C433.353 52.5843 434.558 53.0746 436.07 53.0746C436.887 53.0746 437.745 52.952 438.644 52.7068C439.502 52.4208 440.319 52.1144 441.096 51.7875V58.9581C440.401 59.2441 439.461 59.4893 438.277 59.6936C437.051 59.8979 435.805 60 434.538 60ZM451.269 59.2033V0H459.421V23.2891C460.891 21.1236 462.791 19.4484 465.12 18.2635C467.449 17.1195 469.839 16.5475 472.291 16.5475C475.641 16.5475 478.42 17.3238 480.626 18.8764C482.832 20.4699 484.446 22.5536 485.468 25.1277C486.53 27.7017 487.061 30.5414 487.061 33.6466V59.2033H478.787V34.811C478.787 27.5792 476.05 23.9632 470.575 23.9632C468.287 23.9632 466.305 24.5557 464.63 25.7405C462.955 26.9254 461.668 28.5189 460.769 30.5209C459.87 32.523 459.421 34.7702 459.421 37.2625V59.2033H451.269Z" fill="white"/>
<path d="M33.491 90C15.565 90 0.980982 75.416 0.980982 57.49C0.973227 51.2544 2.76527 45.1491 6.14198 39.907L30.875 1.42899C31.1564 0.990742 31.5435 0.630223 32.0006 0.380537C32.4577 0.13085 32.9701 0 33.491 0C34.0118 0 34.5243 0.13085 34.9814 0.380537C35.4385 0.630223 35.8255 0.990742 36.107 1.42899L60.841 39.911L60.869 39.956C64.226 45.1877 66.0068 51.2749 65.999 57.491C66.001 75.416 51.417 90 33.491 90ZM33.491 8.86199L11.373 43.274C8.64371 47.5126 7.19545 52.4487 7.20198 57.49C7.20198 71.987 18.995 83.78 33.491 83.78C47.987 83.78 59.78 71.987 59.78 57.491C59.78 52.429 58.339 47.516 55.613 43.282L55.583 43.235L33.491 8.86199V8.86199Z" fill="white"/>
<path d="M33.491 76.3141C23.087 76.3141 14.623 67.85 14.623 57.446C14.623 57.1738 14.6766 56.9043 14.7808 56.6527C14.885 56.4012 15.0377 56.1727 15.2302 55.9802C15.4226 55.7877 15.6512 55.635 15.9027 55.5308C16.1542 55.4267 16.4238 55.373 16.696 55.373C16.9682 55.373 17.2378 55.4267 17.4893 55.5308C17.7408 55.635 17.9693 55.7877 18.1618 55.9802C18.3543 56.1727 18.507 56.4012 18.6112 56.6527C18.7154 56.9043 18.769 57.1738 18.769 57.446C18.769 65.564 25.373 72.168 33.49 72.168C34.0398 72.1679 34.5671 72.3862 34.956 72.7749C35.3448 73.1635 35.5634 73.6908 35.5635 74.2405C35.5636 74.7903 35.3453 75.3177 34.9567 75.7065C34.568 76.0954 34.0408 76.3139 33.491 76.3141V76.3141Z" fill="white"/>
<path d="M85 77.864C85 76.8587 85.19 75.9097 85.57 75.017C85.9499 74.1677 86.4431 73.4917 87.0495 72.989C87.6478 72.4863 88.3107 72.0963 89.0383 71.819C89.7579 71.5417 90.4572 71.403 91.1364 71.403C91.8397 71.403 92.4623 71.4507 93.0039 71.546C93.5133 71.6327 93.8892 71.7237 94.1318 71.819C94.3743 71.9143 94.5118 71.962 94.5441 71.962C94.6815 71.962 94.7584 71.9317 94.7745 71.871C94.7988 71.8017 94.8109 71.663 94.8109 71.455V71.299H95.4536C95.486 72.4517 95.5547 73.6087 95.6598 74.77L95.0413 74.783C95.0252 74.5663 95.009 74.3973 94.9928 74.276C94.9928 74.224 94.9928 74.1677 94.9928 74.107C94.9847 74.055 94.9766 74.0073 94.9686 73.964C94.9686 73.9293 94.9686 73.899 94.9686 73.873C94.9443 73.7777 94.9322 73.6867 94.9322 73.6C94.9322 73.548 94.916 73.483 94.8837 73.405C94.8837 73.3877 94.8715 73.3703 94.8473 73.353C94.823 73.327 94.8109 73.3053 94.8109 73.288C94.7867 73.236 94.7462 73.197 94.6896 73.171C94.6573 73.145 94.629 73.1277 94.6047 73.119C94.5805 73.1103 94.5603 73.1017 94.5441 73.093C94.5279 73.093 94.5118 73.0843 94.4956 73.067C94.4794 73.0497 94.4511 73.0323 94.4107 73.015C94.3784 72.9977 94.346 72.9803 94.3137 72.963C94.1358 72.885 94.0348 72.8373 94.0105 72.82C93.7275 72.664 93.3273 72.5297 92.8099 72.417C92.2682 72.313 91.7306 72.261 91.197 72.261C89.7983 72.261 88.6584 72.7507 87.7771 73.73C86.8797 74.7267 86.435 75.9313 86.4431 77.344C86.4431 78.8433 86.9363 80.1737 87.9226 81.335C88.8928 82.4877 90.1136 83.064 91.5851 83.064C92.3935 83.064 93.1778 82.8343 93.9377 82.375C94.7058 81.8983 95.102 81.504 95.1262 81.192L95.1747 79.671H95.7811L95.6719 82.323C95.6234 82.3577 95.5466 82.4097 95.4415 82.479C95.393 82.505 95.1828 82.6263 94.8109 82.843C94.5037 83.0163 94.1722 83.181 93.8165 83.337C93.5173 83.4757 93.105 83.597 92.5795 83.701C92.0944 83.805 91.6214 83.8613 91.1606 83.87C89.2364 83.87 87.7246 83.3283 86.625 82.245C85.5417 81.1617 85 79.7013 85 77.864ZM105.919 72.17H105.446L105.471 71.442H109.376C110.289 71.442 110.989 71.4983 111.474 71.611C111.999 71.7497 112.448 71.9837 112.82 72.313C113.636 73.0237 114.045 73.873 114.045 74.861C114.045 75.485 113.851 76.0613 113.463 76.59C113.066 77.1273 112.452 77.5087 111.619 77.734L114.881 82.375C115.124 82.7043 115.367 82.869 115.609 82.869H116.337L116.373 83.571H113.911L110.273 77.968H110.067C110.035 77.968 109.994 77.9723 109.946 77.981C109.905 77.981 109.881 77.981 109.873 77.981C109.153 77.981 108.636 77.9463 108.321 77.877V82.336C108.321 82.596 108.377 82.7477 108.49 82.791C108.587 82.843 108.923 82.869 109.497 82.869H110.358L110.322 83.571H105.81V82.869H106.198C106.57 82.869 106.785 82.843 106.841 82.791C106.906 82.7303 106.938 82.5787 106.938 82.336V72.82C106.938 72.5427 106.861 72.365 106.708 72.287C106.53 72.209 106.267 72.17 105.919 72.17ZM108.321 73.002V77.279C108.466 77.3917 108.826 77.4523 109.4 77.461C110.435 77.461 111.187 77.2703 111.656 76.889C112.125 76.5163 112.359 75.9313 112.359 75.134C112.359 74.2673 112.048 73.5523 111.425 72.989C110.811 72.443 109.946 72.17 108.83 72.17C108.628 72.17 108.494 72.2177 108.43 72.313C108.365 72.391 108.329 72.6207 108.321 73.002ZM125.784 72.17L125.772 71.442H134.515C134.524 72.3607 134.552 73.314 134.6 74.302L133.933 74.328C133.925 73.7733 133.897 73.3183 133.848 72.963C133.816 72.651 133.78 72.456 133.739 72.378C133.691 72.3 133.622 72.2523 133.533 72.235C133.452 72.2263 133.173 72.222 132.696 72.222H129.81C129.374 72.222 129.095 72.261 128.973 72.339C128.876 72.417 128.828 72.6597 128.828 73.067V75.602C128.828 75.9573 128.852 76.1653 128.901 76.226C128.949 76.2953 129.115 76.33 129.398 76.33H131.957C132.248 76.33 132.426 76.2823 132.49 76.187C132.555 76.1003 132.591 75.8447 132.599 75.42V74.731L133.218 74.757V79.099H132.599V78.15C132.599 77.6473 132.571 77.357 132.514 77.279C132.442 77.1837 132.264 77.136 131.981 77.136H129.446C129.171 77.136 129.002 77.1707 128.937 77.24C128.864 77.318 128.828 77.4697 128.828 77.695V81.998C128.828 82.3187 128.864 82.5223 128.937 82.609C129.002 82.6957 129.143 82.739 129.361 82.739C131.722 82.7217 133.117 82.687 133.545 82.635C133.966 82.583 134.208 82.4487 134.273 82.232L134.285 82.206L134.297 82.193L134.564 80.659L135.146 80.763L134.722 83.571H126.111V82.869H126.56C127.013 82.869 127.271 82.8387 127.336 82.778C127.417 82.7087 127.457 82.505 127.457 82.167V72.95C127.457 72.586 127.397 72.365 127.276 72.287C127.13 72.209 126.794 72.17 126.269 72.17H125.784ZM144.714 83.571L144.69 82.869H144.908C145.216 82.869 145.422 82.8083 145.527 82.687C145.632 82.5483 145.818 82.1583 146.085 81.517L147.188 78.904L147.892 77.227C148.102 76.7417 148.223 76.4513 148.256 76.356C148.312 76.2173 148.361 76.1047 148.401 76.018C148.442 75.94 148.47 75.875 148.486 75.823L148.595 75.511L150.329 71H150.693C151.38 72.9413 152.609 76.1957 154.38 80.763C154.744 81.7077 155.002 82.31 155.156 82.57C155.269 82.7693 155.504 82.869 155.859 82.869H156.114L156.09 83.571H152.221L152.245 82.869H152.743C153.244 82.869 153.495 82.7953 153.495 82.648C153.495 82.5873 153.438 82.401 153.325 82.089L152.064 78.774H148.122L146.788 81.972C146.675 82.2493 146.618 82.4443 146.618 82.557C146.618 82.6957 146.659 82.7823 146.74 82.817C146.812 82.8517 147.002 82.869 147.31 82.869H148.013V83.571H144.714ZM150.172 73.665L148.45 77.968H151.773L150.172 73.665ZM165.828 74.393L165.222 74.367C165.319 73.3617 165.404 72.3867 165.476 71.442H175.275C175.202 72.352 175.158 72.9803 175.142 73.327C175.101 73.9597 175.073 74.302 175.057 74.354L174.463 74.328C174.527 73.496 174.56 73.002 174.56 72.846C174.56 72.6033 174.499 72.443 174.378 72.365C174.24 72.2783 174.01 72.235 173.686 72.235H171.734C171.33 72.235 171.075 72.2783 170.97 72.365C170.897 72.4343 170.857 72.6813 170.849 73.106V82.024C170.849 82.4053 170.909 82.6393 171.031 82.726C171.152 82.8213 171.423 82.869 171.843 82.869H172.522L172.534 83.571L168.059 83.558V82.869H168.326C168.868 82.869 169.195 82.8343 169.308 82.765C169.422 82.687 169.478 82.466 169.478 82.102V73.262C169.478 72.7767 169.438 72.482 169.357 72.378C169.284 72.2827 169.074 72.235 168.726 72.235H166.944C166.798 72.235 166.697 72.2437 166.64 72.261C166.584 72.2697 166.511 72.274 166.422 72.274C166.398 72.274 166.341 72.3043 166.252 72.365C166.188 72.4083 166.143 72.4387 166.119 72.456C166.095 72.4733 166.066 72.5297 166.034 72.625C166.01 72.677 165.99 72.742 165.973 72.82C165.949 72.8807 165.929 72.976 165.913 73.106C165.889 73.3053 165.876 73.4137 165.876 73.431C165.876 73.5957 165.872 73.743 165.864 73.873C165.864 73.9337 165.86 74.0203 165.852 74.133C165.844 74.2543 165.836 74.341 165.828 74.393ZM185.365 72.17H184.649L184.674 71.442H188.93V72.17H188.651C188.207 72.17 187.916 72.209 187.778 72.287C187.665 72.3563 187.608 72.5947 187.608 73.002V82.024C187.608 82.4227 187.653 82.661 187.742 82.739C187.831 82.8257 188.094 82.869 188.53 82.869H189.185L189.209 83.571H184.856L184.843 82.869H185.28C185.733 82.869 186.008 82.8257 186.105 82.739C186.194 82.6523 186.238 82.427 186.238 82.063V72.82C186.238 72.4993 186.198 72.313 186.117 72.261C186.028 72.2003 185.777 72.17 185.365 72.17ZM198.608 72.17L198.584 71.442H201.227L208.176 81.062V72.82C208.176 72.534 208.116 72.352 207.994 72.274C207.873 72.2047 207.626 72.17 207.255 72.17H206.66L206.685 71.442H210.299V72.17H209.91C209.539 72.17 209.292 72.2177 209.171 72.313C209.049 72.4083 208.989 72.625 208.989 72.963V83.454V83.649C208.989 83.6923 208.981 83.7357 208.965 83.779C208.956 83.8137 208.94 83.844 208.916 83.87C208.9 83.8787 208.872 83.883 208.831 83.883H208.601H208.516H208.492L208.455 83.87C208.431 83.87 208.415 83.8657 208.407 83.857C208.39 83.8397 208.382 83.8267 208.382 83.818C208.382 83.8007 208.378 83.7877 208.37 83.779C208.346 83.753 208.326 83.7227 208.31 83.688C208.293 83.6707 208.277 83.649 208.261 83.623C208.245 83.5883 208.233 83.5667 208.225 83.558L200.815 73.366L200.9 82.024C200.9 82.414 200.969 82.6523 201.106 82.739C201.227 82.8257 201.575 82.869 202.149 82.869H202.44V83.571H198.875V82.869H199.396C199.695 82.869 199.889 82.8213 199.978 82.726C200.059 82.6393 200.104 82.4183 200.112 82.063V72.378L199.93 72.17H198.608ZM220.158 78.15C220.158 77.006 220.405 75.914 220.898 74.874C221.399 73.834 222.147 72.9673 223.141 72.274C224.136 71.5807 225.288 71.234 226.598 71.234C227.624 71.234 228.78 71.5157 230.066 72.079V71.156H230.745L230.866 75.134L230.199 75.147L230.078 73.262C230.013 73.2013 229.872 73.0973 229.654 72.95C229.451 72.8027 229.043 72.625 228.429 72.417C227.847 72.2177 227.192 72.118 226.464 72.118C225.672 72.118 224.964 72.261 224.342 72.547C223.719 72.8417 223.222 73.2317 222.85 73.717C222.47 74.2023 222.183 74.744 221.989 75.342C221.779 75.9487 221.674 76.5943 221.674 77.279C221.674 78.8043 222.127 80.1563 223.032 81.335C223.946 82.5137 225.15 83.103 226.646 83.103C227.212 83.103 227.75 83.0163 228.259 82.843C228.776 82.6783 229.124 82.518 229.302 82.362L229.581 82.102V78.852H227.568L227.556 78.137H232.237L232.261 78.852H230.963V82.57L230.005 83.012C229.447 83.2893 229.076 83.467 228.89 83.545C228.687 83.623 228.324 83.7183 227.798 83.831C227.313 83.9437 226.824 84 226.331 84C225.28 84 224.362 83.8397 223.578 83.519C222.777 83.1983 222.127 82.7607 221.625 82.206C221.148 81.686 220.78 81.0707 220.522 80.36C220.279 79.6753 220.158 78.9387 220.158 78.15ZM253.726 72.17H253.241L253.277 71.442H257.037C258.444 71.442 259.462 71.7323 260.093 72.313C260.715 72.8937 261.027 73.5957 261.027 74.419C261.027 75.0343 260.808 75.5673 260.372 76.018C259.919 76.486 259.414 76.811 258.856 76.993C259.729 77.1837 260.38 77.6127 260.808 78.28C261.229 78.9213 261.435 79.645 261.427 80.451C261.427 81.3177 261.172 82.0023 260.663 82.505C260.178 82.973 259.551 83.272 258.783 83.402C258.039 83.5147 257.041 83.571 255.788 83.571H253.387V82.869H253.896C254.187 82.869 254.377 82.8387 254.466 82.778C254.563 82.7173 254.611 82.57 254.611 82.336V72.82C254.611 72.534 254.547 72.352 254.417 72.274C254.312 72.2047 254.082 72.17 253.726 72.17ZM255.945 77.305L255.982 82.193C255.982 82.4357 256.051 82.5917 256.188 82.661C256.317 82.739 256.616 82.778 257.085 82.778C258.913 82.778 259.826 81.959 259.826 80.321C259.826 79.723 259.693 79.2117 259.426 78.787C259.175 78.3623 258.836 78.0547 258.407 77.864C257.938 77.63 257.526 77.4827 257.17 77.422C256.782 77.344 256.374 77.305 255.945 77.305ZM255.982 72.651V76.785H257.643C258.177 76.785 258.613 76.5553 258.953 76.096C259.276 75.654 259.442 75.1687 259.45 74.64C259.45 74.042 259.212 73.4917 258.735 72.989C258.274 72.4863 257.526 72.235 256.491 72.235C256.152 72.235 255.982 72.3737 255.982 72.651ZM271.201 72.17L271.189 71.442H279.933C279.941 72.3607 279.969 73.314 280.018 74.302L279.351 74.328C279.343 73.7733 279.315 73.3183 279.266 72.963C279.234 72.651 279.197 72.456 279.157 72.378C279.108 72.3 279.04 72.2523 278.951 72.235C278.87 72.2263 278.591 72.222 278.114 72.222H275.228C274.791 72.222 274.512 72.261 274.391 72.339C274.294 72.417 274.245 72.6597 274.245 73.067V75.602C274.245 75.9573 274.266 76.1653 274.306 76.226C274.363 76.2953 274.528 76.33 274.803 76.33H277.374C277.665 76.33 277.843 76.2823 277.908 76.187C277.973 76.1003 278.009 75.8447 278.017 75.42V74.731L278.635 74.757V79.099H278.017V78.15C278.017 77.6473 277.985 77.357 277.92 77.279C277.855 77.1837 277.681 77.136 277.398 77.136H274.864C274.589 77.136 274.419 77.1707 274.355 77.24C274.282 77.318 274.245 77.4697 274.245 77.695V81.998C274.245 82.3187 274.282 82.5223 274.355 82.609C274.419 82.6957 274.561 82.739 274.779 82.739C277.14 82.7217 278.534 82.687 278.963 82.635C279.383 82.583 279.626 82.4487 279.691 82.232L279.703 82.206V82.193L279.982 80.659L280.564 80.763L280.139 83.571H271.529V82.869H271.978C272.43 82.869 272.689 82.8387 272.754 82.778C272.827 82.7087 272.863 82.505 272.863 82.167V72.95C272.863 72.586 272.802 72.365 272.681 72.287C272.544 72.209 272.212 72.17 271.687 72.17H271.201ZM290.447 74.393L289.841 74.367C289.946 73.3617 290.031 72.3867 290.096 71.442H299.895C299.83 72.352 299.785 72.9803 299.761 73.327C299.729 73.9597 299.705 74.302 299.688 74.354L299.082 74.328C299.147 73.496 299.179 73.002 299.179 72.846C299.179 72.6033 299.122 72.443 299.009 72.365C298.872 72.2783 298.637 72.235 298.306 72.235H296.365C295.953 72.235 295.698 72.2783 295.601 72.365C295.521 72.4343 295.48 72.6813 295.48 73.106V82.024C295.48 82.4053 295.537 82.6393 295.65 82.726C295.779 82.8213 296.05 82.869 296.463 82.869H297.142L297.154 83.571L292.679 83.558V82.869H292.946C293.487 82.869 293.815 82.8343 293.928 82.765C294.049 82.687 294.11 82.466 294.11 82.102V73.262C294.11 72.7767 294.069 72.482 293.989 72.378C293.908 72.2827 293.697 72.235 293.358 72.235H291.575C291.422 72.235 291.317 72.2437 291.26 72.261C291.211 72.2697 291.143 72.274 291.054 72.274C291.029 72.274 290.969 72.3043 290.872 72.365C290.807 72.4083 290.763 72.4387 290.738 72.456C290.722 72.4733 290.694 72.5297 290.654 72.625C290.637 72.677 290.617 72.742 290.593 72.82C290.569 72.8807 290.548 72.976 290.532 73.106C290.508 73.3053 290.496 73.4137 290.496 73.431C290.496 73.5957 290.492 73.743 290.484 73.873C290.484 73.9337 290.48 74.0203 290.472 74.133C290.472 74.2543 290.464 74.341 290.447 74.393ZM309.621 74.393L309.014 74.367C309.111 73.3617 309.192 72.3867 309.257 71.442H319.056C318.991 72.352 318.95 72.9803 318.934 73.327C318.894 73.9597 318.866 74.302 318.849 74.354L318.243 74.328C318.316 73.496 318.352 73.002 318.352 72.846C318.352 72.6033 318.292 72.443 318.17 72.365C318.033 72.2783 317.802 72.235 317.479 72.235H315.527C315.122 72.235 314.868 72.2783 314.762 72.365C314.69 72.4343 314.649 72.6813 314.641 73.106V82.024C314.641 82.4053 314.698 82.6393 314.811 82.726C314.94 82.8213 315.211 82.869 315.624 82.869H316.315L316.327 83.571L311.852 83.558V82.869H312.119C312.66 82.869 312.988 82.8343 313.101 82.765C313.214 82.687 313.271 82.466 313.271 82.102V73.262C313.271 72.7767 313.23 72.482 313.15 72.378C313.069 72.2827 312.859 72.235 312.519 72.235H310.736C310.591 72.235 310.49 72.2437 310.433 72.261C310.376 72.2697 310.304 72.274 310.215 72.274C310.191 72.274 310.134 72.3043 310.045 72.365C309.98 72.4083 309.936 72.4387 309.912 72.456C309.887 72.4733 309.859 72.5297 309.827 72.625C309.802 72.677 309.778 72.742 309.754 72.82C309.738 72.8807 309.722 72.976 309.705 73.106C309.681 73.3053 309.669 73.4137 309.669 73.431C309.669 73.5957 309.665 73.743 309.657 73.873C309.657 73.9337 309.653 74.0203 309.645 74.133C309.637 74.2543 309.629 74.341 309.621 74.393ZM328.466 72.17L328.442 71.442H337.186C337.202 72.3607 337.23 73.314 337.271 74.302L336.616 74.328C336.6 73.7733 336.571 73.3183 336.531 72.963C336.499 72.651 336.458 72.456 336.41 72.378C336.369 72.3 336.3 72.2523 336.203 72.235C336.131 72.2263 335.856 72.222 335.379 72.222H332.492C332.048 72.222 331.769 72.261 331.656 72.339C331.559 72.417 331.51 72.6597 331.51 73.067V75.602C331.51 75.9573 331.53 76.1653 331.571 76.226C331.627 76.2953 331.793 76.33 332.068 76.33H334.627C334.918 76.33 335.1 76.2823 335.173 76.187C335.237 76.1003 335.274 75.8447 335.282 75.42V74.731L335.9 74.757V79.099H335.282V78.15C335.282 77.6473 335.249 77.357 335.185 77.279C335.12 77.1837 334.946 77.136 334.663 77.136H332.117C331.85 77.136 331.68 77.1707 331.607 77.24C331.543 77.318 331.51 77.4697 331.51 77.695V81.998C331.51 82.3187 331.543 82.5223 331.607 82.609C331.68 82.6957 331.826 82.739 332.044 82.739C334.405 82.7217 335.799 82.687 336.228 82.635C336.64 82.583 336.883 82.4487 336.955 82.232V82.206L336.967 82.193L337.246 80.659L337.816 80.763L337.404 83.571H328.782V82.869H329.23C329.683 82.869 329.942 82.8387 330.006 82.778C330.087 82.7087 330.128 82.505 330.128 82.167V72.95C330.128 72.586 330.067 72.365 329.946 72.287C329.808 72.209 329.473 72.17 328.939 72.17H328.466ZM347.773 72.17H347.3L347.324 71.442H351.229C352.143 71.442 352.842 71.4983 353.327 71.611C353.853 71.7497 354.301 71.9837 354.673 72.313C355.49 73.0237 355.898 73.873 355.898 74.861C355.898 75.485 355.708 76.0613 355.328 76.59C354.924 77.1273 354.305 77.5087 353.473 77.734L356.735 82.375C356.977 82.7043 357.22 82.869 357.462 82.869H358.19L358.226 83.571H355.765L352.126 77.968H351.92C351.888 77.968 351.852 77.9723 351.811 77.981C351.763 77.981 351.734 77.981 351.726 77.981C351.015 77.981 350.497 77.9463 350.174 77.877V82.336C350.174 82.596 350.231 82.7477 350.344 82.791C350.449 82.843 350.784 82.869 351.35 82.869H352.211L352.175 83.571H347.664V82.869H348.052C348.424 82.869 348.638 82.843 348.694 82.791C348.767 82.7303 348.804 82.5787 348.804 82.336V72.82C348.804 72.5427 348.723 72.365 348.561 72.287C348.383 72.209 348.12 72.17 347.773 72.17ZM350.174 73.002V77.279C350.32 77.3917 350.683 77.4523 351.265 77.461C352.292 77.461 353.04 77.2703 353.509 76.889C353.986 76.5163 354.224 75.9313 354.224 75.134C354.224 74.2673 353.909 73.5523 353.279 72.989C352.664 72.443 351.799 72.17 350.683 72.17C350.481 72.17 350.348 72.2177 350.283 72.313C350.218 72.391 350.182 72.6207 350.174 73.002ZM379.243 72.17L379.231 71.442H387.938C387.954 72.3607 387.983 73.314 388.023 74.302L387.368 74.328C387.352 73.7733 387.324 73.3183 387.283 72.963C387.251 72.651 387.211 72.456 387.162 72.378C387.122 72.3 387.053 72.2523 386.956 72.235C386.883 72.2263 386.608 72.222 386.131 72.222H383.245C382.8 72.222 382.521 72.261 382.408 72.339C382.311 72.417 382.263 72.6597 382.263 73.067V75.602C382.263 75.9573 382.283 76.1653 382.323 76.226C382.38 76.2953 382.542 76.33 382.808 76.33H385.379C385.67 76.33 385.852 76.2867 385.925 76.2C385.99 76.1133 386.022 75.8663 386.022 75.459V74.757H386.653V79.099H386.022V78.176C386.022 77.6733 385.99 77.3743 385.925 77.279C385.852 77.1837 385.683 77.136 385.416 77.136H382.869C382.602 77.136 382.432 77.1707 382.36 77.24C382.295 77.318 382.263 77.4697 382.263 77.695V81.998C382.263 82.3447 382.287 82.5743 382.335 82.687C382.408 82.8083 382.55 82.869 382.76 82.869H383.9V83.571H379.534V82.869H380.031C380.444 82.869 380.686 82.8343 380.759 82.765C380.84 82.687 380.88 82.4877 380.88 82.167V72.95C380.88 72.56 380.811 72.3303 380.674 72.261C380.561 72.2003 380.084 72.17 379.243 72.17ZM398.246 72.17H397.785V71.442H401.86L401.884 72.17H401.23C400.882 72.17 400.643 72.209 400.514 72.287C400.377 72.3737 400.308 72.56 400.308 72.846V79.567C400.308 79.827 400.324 80.022 400.356 80.152C400.389 80.3513 400.47 80.6243 400.599 80.971C400.736 81.309 400.926 81.6037 401.169 81.855C401.42 82.1237 401.771 82.3577 402.224 82.557C402.685 82.7477 403.231 82.843 403.861 82.843C404.548 82.843 405.114 82.765 405.559 82.609C406.012 82.4443 406.363 82.2493 406.614 82.024C406.865 81.7987 407.047 81.4823 407.16 81.075C407.297 80.607 407.37 80.2473 407.378 79.996C407.402 79.58 407.415 79.151 407.415 78.709V72.82C407.415 72.534 407.358 72.352 407.245 72.274C407.123 72.2047 406.869 72.17 406.481 72.17H405.886L405.911 71.442H409.112V72.17H408.882C408.615 72.17 408.437 72.2177 408.348 72.313C408.259 72.4083 408.215 72.625 408.215 72.963V79.424C408.215 82.414 406.764 83.909 403.861 83.909C402.107 83.909 400.846 83.5147 400.078 82.726C399.326 81.946 398.95 80.9277 398.95 79.671V72.82C398.95 72.534 398.905 72.352 398.816 72.274C398.727 72.2047 398.537 72.17 398.246 72.17ZM418.838 74.393L418.232 74.367C418.329 73.3617 418.41 72.3867 418.475 71.442H428.273C428.209 72.352 428.164 72.9803 428.14 73.327C428.108 73.9597 428.083 74.302 428.067 74.354L427.461 74.328C427.525 73.496 427.558 73.002 427.558 72.846C427.558 72.6033 427.501 72.443 427.388 72.365C427.251 72.2783 427.02 72.235 426.697 72.235H424.744C424.332 72.235 424.077 72.2783 423.98 72.365C423.899 72.4343 423.859 72.6813 423.859 73.106V82.024C423.859 82.4053 423.916 82.6393 424.029 82.726C424.158 82.8213 424.429 82.869 424.841 82.869H425.52L425.545 83.571L421.058 83.558V82.869H421.324C421.866 82.869 422.198 82.8343 422.319 82.765C422.432 82.687 422.489 82.466 422.489 82.102V73.262C422.489 72.7767 422.448 72.482 422.367 72.378C422.287 72.2827 422.076 72.235 421.737 72.235H419.954C419.8 72.235 419.699 72.2437 419.651 72.261C419.594 72.2697 419.522 72.274 419.433 72.274C419.408 72.274 419.348 72.3043 419.251 72.365C419.186 72.4083 419.142 72.4387 419.117 72.456C419.101 72.4733 419.077 72.5297 419.045 72.625C419.02 72.677 418.996 72.742 418.972 72.82C418.947 72.8807 418.927 72.976 418.911 73.106C418.895 73.3053 418.887 73.4137 418.887 73.431C418.887 73.5957 418.879 73.743 418.863 73.873C418.863 73.9337 418.863 74.0203 418.863 74.133C418.855 74.2543 418.846 74.341 418.838 74.393ZM438.121 72.17H437.66V71.442H441.735L441.759 72.17H441.104C440.756 72.17 440.522 72.209 440.401 72.287C440.255 72.3737 440.182 72.56 440.182 72.846V79.567C440.182 79.827 440.198 80.022 440.231 80.152C440.263 80.3513 440.344 80.6243 440.473 80.971C440.611 81.309 440.801 81.6037 441.043 81.855C441.294 82.1237 441.646 82.3577 442.098 82.557C442.559 82.7477 443.105 82.843 443.736 82.843C444.423 82.843 444.989 82.765 445.433 82.609C445.886 82.4443 446.238 82.2493 446.488 82.024C446.739 81.7987 446.921 81.4823 447.034 81.075C447.172 80.607 447.244 80.2473 447.252 79.996C447.277 79.58 447.289 79.151 447.289 78.709V72.82C447.289 72.534 447.232 72.352 447.119 72.274C446.998 72.2047 446.743 72.17 446.355 72.17H445.761L445.797 71.442H448.987V72.17H448.756C448.489 72.17 448.312 72.2177 448.223 72.313C448.134 72.4083 448.089 72.625 448.089 72.963V79.424C448.089 82.414 446.638 83.909 443.736 83.909C441.981 83.909 440.72 83.5147 439.952 82.726C439.2 81.946 438.824 80.9277 438.824 79.671V72.82C438.824 72.534 438.78 72.352 438.691 72.274C438.602 72.2047 438.412 72.17 438.121 72.17ZM458.773 72.17H458.3L458.312 71.442H462.217C463.139 71.442 463.842 71.4983 464.328 71.611C464.845 71.7497 465.294 71.9837 465.674 72.313C466.482 73.0237 466.886 73.873 466.886 74.861C466.886 75.485 466.696 76.0613 466.316 76.59C465.92 77.1273 465.306 77.5087 464.473 77.734L467.723 82.375C467.974 82.7043 468.22 82.869 468.463 82.869H469.191L469.215 83.571H466.753L463.127 77.968H462.921C462.889 77.968 462.848 77.9723 462.8 77.981C462.759 77.981 462.731 77.981 462.715 77.981C462.003 77.981 461.49 77.9463 461.175 77.877V82.336C461.175 82.596 461.231 82.7477 461.344 82.791C461.441 82.843 461.777 82.869 462.351 82.869H463.212L463.176 83.571H458.664V82.869H459.052C459.424 82.869 459.638 82.843 459.695 82.791C459.76 82.7303 459.792 82.5787 459.792 82.336V72.82C459.792 72.5427 459.715 72.365 459.562 72.287C459.376 72.209 459.113 72.17 458.773 72.17ZM461.175 73.002V77.279C461.32 77.3917 461.68 77.4523 462.254 77.461C463.281 77.461 464.028 77.2703 464.497 76.889C464.974 76.5163 465.213 75.9313 465.213 75.134C465.213 74.2673 464.902 73.5523 464.279 72.989C463.665 72.443 462.8 72.17 461.684 72.17C461.482 72.17 461.348 72.2177 461.284 72.313C461.211 72.391 461.175 72.6207 461.175 73.002ZM478.638 72.17L478.626 71.442H487.369C487.377 72.3607 487.406 73.314 487.454 74.302L486.787 74.328C486.779 73.7733 486.751 73.3183 486.702 72.963C486.67 72.651 486.634 72.456 486.593 72.378C486.545 72.3 486.472 72.2523 486.375 72.235C486.302 72.2263 486.027 72.222 485.55 72.222H482.664C482.227 72.222 481.948 72.261 481.827 72.339C481.73 72.417 481.682 72.6597 481.682 73.067V75.602C481.682 75.9573 481.702 76.1653 481.742 76.226C481.799 76.2953 481.965 76.33 482.24 76.33H484.81C485.102 76.33 485.279 76.2823 485.344 76.187C485.409 76.1003 485.445 75.8447 485.453 75.42V74.731L486.072 74.757V79.099H485.453V78.15C485.453 77.6473 485.421 77.357 485.356 77.279C485.292 77.1837 485.118 77.136 484.835 77.136H482.288C482.021 77.136 481.851 77.1707 481.779 77.24C481.714 77.318 481.682 77.4697 481.682 77.695V81.998C481.682 82.3187 481.714 82.5223 481.779 82.609C481.851 82.6957 481.997 82.739 482.215 82.739C484.576 82.7217 485.971 82.687 486.399 82.635C486.82 82.583 487.062 82.4487 487.127 82.232L487.139 82.206V82.193L487.418 80.659L488 80.763L487.575 83.571H478.965V82.869H479.414C479.867 82.869 480.125 82.8387 480.19 82.778C480.263 82.7087 480.299 82.505 480.299 82.167V72.95C480.299 72.586 480.239 72.365 480.117 72.287C479.98 72.209 479.648 72.17 479.123 72.17H478.638Z" fill="white"/>
</g>
<defs>
<clipPath id="clip0_2_100">
<rect width="488" height="90" fill="white"/>
</clipPath>
</defs>
</svg>
