<svg width="32" height="34" viewBox="0 0 32 34" fill="none" xmlns="http://www.w3.org/2000/svg">
<path d="M16 4.25C9.38443 4.25 4 9.97095 4 17C4 24.029 9.38443 29.75 16 29.75C22.6156 29.75 28 24.029 28 17C28 9.97095 22.6156 4.25 16 4.25ZM16 6.375C21.5347 6.375 26 11.1194 26 17C26 22.3416 22.3117 26.7339 17.4883 27.4963V20.0983H20.3359L20.7832 17.0249H17.4883V15.3461C17.4883 14.07 17.8829 12.9368 19.0059 12.9368H20.8105V10.2556C20.4935 10.2099 19.8227 10.1104 18.5547 10.1104C15.9067 10.1104 14.3555 11.5957 14.3555 14.9808V17.0249H11.6328V20.0983H14.3555V27.4694C9.60886 26.6376 6 22.2839 6 17C6 11.1194 10.4653 6.375 16 6.375Z" fill="white"/>
</svg>
