<svg width="38" height="38" viewBox="0 0 38 38" fill="none" xmlns="http://www.w3.org/2000/svg">
<path d="M19 4.75C11.144 4.75 4.75 11.144 4.75 19C4.75 26.856 11.144 33.25 19 33.25C26.856 33.25 33.25 26.856 33.25 19C33.25 11.144 26.856 4.75 19 4.75ZM19 7.125C25.5724 7.125 30.875 12.4276 30.875 19C30.875 24.97 26.4951 29.879 20.7673 30.7312V22.4628H24.1489L24.6801 19.0278H20.7673V17.1515C20.7673 15.7253 21.2359 14.4587 22.5695 14.4587H24.7125V11.4622C24.3361 11.4111 23.5394 11.2998 22.0337 11.2998C18.8892 11.2998 17.0471 12.9599 17.0471 16.7433V19.0278H13.814V22.4628H17.0471V30.701C11.4105 29.7714 7.125 24.9055 7.125 19C7.125 12.4276 12.4276 7.125 19 7.125Z" fill="white"/>
</svg>
