<svg width="118" height="118" viewBox="0 0 118 118" fill="none" xmlns="http://www.w3.org/2000/svg">
<rect width="118" height="118" rx="13" fill="#FF4841"/>
<path d="M88.225 58.0938C88.225 54.9591 86.4816 52.1 83.7363 50.6431C83.8107 50.1947 83.85 49.766 83.85 49.3438C83.85 46.2091 82.1066 43.35 79.3613 41.8931C79.4378 41.4447 79.475 41.0138 79.475 40.5938C79.475 37.2994 77.585 33.8847 75.0169 32.4344C74.4875 28.5603 70.9022 25.5875 66.6563 25.5875C63.2569 25.5875 60.3366 27.6175 59 30.5225C57.6635 27.6197 54.7431 25.5875 51.3438 25.5875C46.9928 25.5875 43.3988 28.8863 42.97 33.1825C40.2553 34.6503 38.525 37.5094 38.525 40.5938C38.525 41.0138 38.5622 41.4425 38.6366 41.8931C35.8913 43.35 34.15 46.2091 34.15 49.3438C34.15 49.7638 34.1872 50.1925 34.2616 50.6431C31.5163 52.1 29.775 54.9591 29.775 58.0938C29.775 60.0078 30.4378 61.8607 31.6519 63.3657C31.1335 64.49 30.8688 65.656 30.8688 66.8438C30.8688 70.3657 33.1044 73.5156 36.3878 74.7297C36.3528 75.0294 36.3375 75.316 36.3375 75.5938C36.3375 79.6013 39.2075 83.0444 43.1035 83.8341C43.891 87.73 47.3363 90.6022 51.3438 90.6022C54.7453 90.6022 57.6635 88.57 59 85.6672C59.385 86.5028 59.9013 87.2641 60.5247 87.9269C60.5641 88.0144 60.5597 88.1128 60.6319 88.185C60.7041 88.2572 60.8025 88.2528 60.89 88.2922C62.4016 89.7141 64.4228 90.6022 66.6563 90.6022C70.6638 90.6022 74.1069 87.7322 74.8966 83.8341C78.7925 83.0466 81.6647 79.6013 81.6647 75.5938C81.6647 75.3138 81.6472 75.0316 81.6144 74.7297C84.8956 73.5135 87.1335 70.3657 87.1335 66.8438C87.1335 65.6582 86.8688 64.4922 86.3482 63.3657C87.5622 61.8628 88.225 60.01 88.225 58.0938ZM53.225 88.7297V84.79C53.225 82.2 51.2147 80.3057 48.7866 78.2713C48.4519 77.9957 47.9553 78.0372 47.6775 78.3697C47.3975 78.7022 47.4413 79.201 47.776 79.481C50.2894 81.5875 51.6522 83.0575 51.6522 84.7922V88.9944C51.5494 88.9988 51.451 89.025 51.346 89.025C47.9291 89.025 45.0153 86.4547 44.5713 83.0488L44.4925 82.4494L43.8931 82.3706C40.4828 81.9244 37.9125 79.0107 37.9125 75.5938C37.9125 75.2963 37.9606 75.0119 38.0022 74.7231L41.8194 73.0322C42.2175 72.8572 42.3969 72.3913 42.2197 71.9932C42.0425 71.5928 41.5766 71.4069 41.1806 71.5907L37.2366 73.3406C34.406 72.435 32.4438 69.81 32.4438 66.8438C32.4438 65.9972 32.6647 65.1682 32.9972 64.35H39.3125C39.7478 64.35 40.1 63.9978 40.1 63.5625C40.1 63.1272 39.7478 62.775 39.3125 62.775H33.2247L33.1722 62.7182C31.9975 61.4341 31.35 59.7935 31.35 58.0938C31.35 55.3703 32.9688 52.9028 35.4713 51.8047L36.0706 51.5422L35.9219 50.9056C35.7885 50.3435 35.725 49.8316 35.725 49.3438C35.725 46.8216 37.1228 44.5335 39.3169 43.3369L43.0816 48.1188C43.7663 48.95 44.3853 49.6238 45.0525 50.151L40.9444 54.2591C40.636 54.5675 40.636 55.0641 40.9444 55.3725C41.0975 55.5235 41.2988 55.6 41.5 55.6C41.7013 55.6 41.9025 55.5235 42.0556 55.3703L46.4306 50.9953C46.4416 50.9844 46.4372 50.9647 46.4481 50.9538C46.9294 51.1222 47.4522 51.2272 48.0625 51.2272H52.4375C52.8728 51.2272 53.225 50.875 53.225 50.4397C53.225 50.0044 52.8728 49.6522 52.4375 49.6522H48.0625C46.6275 49.6522 45.8641 49.0178 44.3066 47.1322L40.2794 42.0135C40.17 41.5103 40.1 41.0356 40.1 40.5938C40.1 38.1241 41.4781 35.8447 43.6328 34.635L45.3697 36.0875C45.5163 36.2122 45.6956 36.2713 45.875 36.2713C46.1003 36.2713 46.3235 36.175 46.4788 35.9891C46.7566 35.6566 46.7128 35.16 46.3803 34.88L44.5625 33.3597C44.9081 29.8619 47.8044 27.1625 51.3438 27.1625C55.1303 27.1625 58.2125 30.2447 58.2125 34.0313V43.151C56.9831 41.6831 55.0603 40.9 52.4375 40.9C52.0022 40.9 51.65 41.2522 51.65 41.6875C51.65 42.1228 52.0022 42.475 52.4375 42.475C56.4319 42.475 58.2125 44.2556 58.2125 48.25V58.4416C56.5741 58.6078 55.6619 59.2247 54.8875 59.8044C53.8922 60.5547 53.1069 61.1431 50.4053 60.6028C49.9766 60.511 49.5631 60.7932 49.4778 61.2197C49.3925 61.6441 49.6681 62.0619 50.0947 62.145C50.915 62.3091 51.6063 62.3791 52.2035 62.3791C54.0781 62.3791 54.9969 61.69 55.8325 61.0622C56.4888 60.57 57.1013 60.15 58.2125 60.0078V71.4988L53.5313 71.5207C51.2475 71.5207 49.6572 70.23 48.8085 67.6838C48.6728 67.2725 48.2222 67.0472 47.8131 67.185C47.4019 67.3228 47.1766 67.7691 47.3144 68.1825C48.7385 72.4569 51.8206 73.0957 53.5335 73.0957L58.2125 73.0738V82.1519C58.2125 85.2866 56.095 87.905 53.225 88.7297ZM81.1397 73.2007C79.7857 70.3963 77.7294 69.2938 74.1813 69.3113L71.9807 69.3375C69.3403 69.3375 68.5375 68.4997 68.5375 65.75C68.5375 65.3147 68.1853 64.9625 67.75 64.9625C67.3147 64.9625 66.9625 65.3147 66.9625 65.75C66.9625 69.3682 68.4653 70.9125 71.9916 70.9125L74.201 70.8863C74.2535 70.8841 74.3081 70.8841 74.3606 70.8841C77.456 70.8841 78.8931 71.7941 79.9672 74.3994C80.035 74.7888 80.0875 75.1825 80.0875 75.5916C80.0875 78.6891 77.9635 81.3535 75.0278 82.1585C74.8572 79.8353 74.1222 78.0547 72.6675 76.6875C72.3481 76.39 71.8516 76.4031 71.5541 76.7203C71.2544 77.0397 71.2697 77.5363 71.5869 77.8338C72.8207 78.9953 73.3981 80.5025 73.4878 82.6113L73.431 83.0466C72.9869 86.4547 70.0732 89.0228 66.6563 89.0228C65.0463 89.0228 63.585 88.4431 62.4125 87.5135L66.1203 83.8057C66.4288 83.4972 66.4288 82.9985 66.1203 82.69C65.8119 82.3816 65.3132 82.3816 65.0047 82.69L61.2969 86.4C60.365 85.2275 59.7853 83.7663 59.7853 82.1563V81.0625C59.7853 77.6063 60.8878 77.475 65.5603 77.475C65.9957 77.475 66.3478 77.1228 66.3478 76.6875C66.3478 76.2522 65.9957 75.9 65.5603 75.9C63.1213 75.9 61.0956 75.9328 59.7853 76.8975V59.9269C62.9835 59.8306 63.9985 59.1656 64.88 58.5685C65.5188 58.131 66.0263 57.7875 67.75 57.7875C68.1853 57.7875 68.5375 57.4353 68.5375 57C68.5375 56.5647 68.1853 56.2125 67.75 56.2125C65.5407 56.2125 64.7553 56.7485 63.9941 57.2647C63.2635 57.7613 62.4869 58.2688 59.7875 58.3519V40.2241C61.0169 41.6919 62.9397 42.475 65.5625 42.475C65.9978 42.475 66.35 42.1228 66.35 41.6875C66.35 41.2522 65.9978 40.9 65.5625 40.9C61.5682 40.9 59.7875 39.1194 59.7875 35.125V34.0313C59.7875 30.2447 62.8697 27.1625 66.6563 27.1625C69.9266 27.1625 72.685 29.2975 73.3391 32.15H67.75C67.3147 32.15 66.9625 32.5022 66.9625 32.9375C66.9625 33.3728 67.3147 33.725 67.75 33.725H74.0675C76.2244 34.8253 77.8978 37.8025 77.8978 40.5938C77.8978 41.0116 77.8257 41.4622 77.7294 41.9303C75.66 43.6781 73.9472 45.3494 73.5994 47.4625H67.75C67.3147 47.4625 66.9625 47.8147 66.9625 48.25C66.9625 48.6853 67.3147 49.0375 67.75 49.0375H73.525V54.8125C73.525 55.2478 73.8772 55.6 74.3125 55.6C74.7478 55.6 75.1 55.2478 75.1 54.8125V48.25C75.1 46.6116 76.325 45.2028 78.576 43.28C80.8313 44.4613 82.2728 46.7822 82.2728 49.3438C82.2728 49.8338 82.2094 50.3435 82.076 50.9035L81.9272 51.5422L82.5266 51.8047C85.0313 52.9006 86.6478 55.3703 86.6478 58.0938C86.6478 59.7935 86.0003 61.4363 84.8257 62.716L84.7731 62.7728H78.6875C78.2522 62.7728 77.9 63.125 77.9 63.5603C77.9 63.9957 78.2522 64.3478 78.6875 64.3478H85.0028C85.3353 65.1638 85.5541 65.9972 85.5541 66.8416C85.5563 69.6766 83.7625 72.19 81.1397 73.2007Z" fill="black"/>
</svg>
