<svg width="118" height="118" viewBox="0 0 118 118" fill="none" xmlns="http://www.w3.org/2000/svg">
<rect width="118" height="118" rx="13" fill="#FF4841"/>
<g clip-path="url(#clip0_2_28)">
<path d="M26.9998 71.9746L30.9142 68.0602C31.4211 67.5535 32.2426 67.5535 32.7493 68.0602L42.2001 77.511C42.7069 78.0177 42.7069 78.8394 42.2001 79.3459L40.7549 80.7911L43.179 83.2152C43.7155 83.7517 44.4278 84.0482 45.1859 84.0514L50.9744 83.9391V79.0496L30.8308 58.906C30.324 58.3992 30.324 57.5776 30.8308 57.071L34.7452 53.1566C35.2521 52.6499 36.0736 52.6499 36.5803 53.1566L55.6807 72.2568C56.3507 72.0367 57.0656 71.916 57.8084 71.916C59.5458 71.916 61.1328 72.5687 62.3399 73.6405C68.3069 71.689 72.4301 66.0572 72.4301 59.76C72.4301 58.0172 72.1191 56.3127 71.5126 54.6853C70.3962 54.4751 69.358 54.0405 68.4491 53.4269L64.3615 57.4656C64.3545 57.4727 64.3467 57.4786 64.3394 57.4855C64.3195 57.5042 64.2994 57.5226 64.2783 57.5402C64.2652 57.5511 64.2519 57.5613 64.2385 57.5717C64.2188 57.5868 64.1989 57.6015 64.1783 57.6155C64.1615 57.6269 64.1446 57.6374 64.1275 57.648C64.1095 57.6591 64.0913 57.6698 64.0726 57.68C64.0515 57.6916 64.0302 57.7022 64.0088 57.7124C63.9927 57.72 63.9766 57.7278 63.9602 57.7349C63.9354 57.7454 63.9103 57.7548 63.8851 57.7637C63.8749 57.7674 63.8653 57.7719 63.8551 57.7753L57.8989 59.7335L55.1819 62.4505C54.659 62.9733 53.9723 63.2347 53.2857 63.2347C52.5988 63.2347 51.9123 62.9733 51.3893 62.4505L47.8102 58.8714C46.7647 57.8259 46.7647 56.1246 47.8102 55.0789L50.5211 52.368L52.4137 46.3545C52.4189 46.3379 52.4258 46.3223 52.4317 46.306C52.4398 46.2835 52.4473 46.261 52.4566 46.2391C52.4666 46.2154 52.4782 46.1929 52.4895 46.17C52.4967 46.1552 52.5035 46.1399 52.5114 46.1254C52.5258 46.0988 52.5419 46.0735 52.5578 46.0482C52.5642 46.038 52.5701 46.0277 52.5768 46.0176C52.5952 45.9905 52.6149 45.9647 52.6351 45.9392C52.6412 45.9316 52.6467 45.9237 52.653 45.9162C52.6742 45.8905 52.6971 45.8662 52.7201 45.8424C52.7256 45.8367 52.7306 45.8302 52.7364 45.8245L52.7441 45.8168C52.7466 45.8143 52.749 45.8119 52.7514 45.8095L68.8114 29.827C69.5792 29.0592 70.6004 28.6361 71.6864 28.6361C72.7452 28.6361 73.7414 29.0391 74.5025 29.7709L79.8641 24.4093C79.6731 23.9366 79.5717 23.4275 79.5717 22.9024C79.5717 21.8283 79.9899 20.8183 80.7498 20.0584C81.5089 19.2983 82.5188 18.88 83.593 18.88C84.6673 18.88 85.6771 19.2983 86.4368 20.0579L90.2024 23.8236C90.962 24.5832 91.3803 25.5932 91.3803 26.6674C91.3803 27.7417 90.9618 28.7515 90.2021 29.5111C89.4182 30.2948 88.3886 30.6867 87.3586 30.6867C86.8464 30.6867 86.3342 30.5893 85.8522 30.3953L80.4878 35.7597C82.0153 37.3494 81.9991 39.8835 80.4331 41.4494L79.978 41.9044C79.9364 41.946 79.8921 41.9828 79.8466 42.0176C80.7344 43.3297 81.2534 44.9109 81.2534 46.6111C81.2534 47.4329 81.1307 48.2263 80.9051 48.9756C82.5126 52.3959 83.3295 56.0217 83.3295 59.76C83.3295 65.5718 81.4155 71.0481 77.7947 75.5971C74.4423 79.8088 69.7939 82.8863 64.6422 84.3237V90.9886H70.2626C73.2677 90.9886 75.7125 93.4334 75.7125 96.4385V97.8226C75.7125 98.5392 75.1317 99.1202 74.4149 99.1202H41.2011C40.4843 99.1202 39.9035 98.5392 39.9035 97.8226V96.4385C39.9035 93.4334 42.3484 90.9886 45.3534 90.9886H50.9741V86.5349L45.2224 86.6465C45.214 86.6467 45.2057 86.6467 45.1972 86.6467C43.7415 86.6467 42.3729 86.0799 41.3435 85.0505L38.9194 82.6264L38.2854 83.2605C38.0319 83.5138 37.6997 83.6406 37.3677 83.6406C37.0357 83.6406 36.7035 83.514 36.45 83.2605L26.9993 73.8097C26.493 73.303 26.493 72.4814 26.9998 71.9746ZM35.6628 55.9091L33.5834 57.9885L51.5668 75.9719C51.9782 75.0513 52.5869 74.2383 53.3396 73.586L35.6628 55.9091ZM78.6586 46.6109C78.6586 43.5105 76.1362 40.988 73.0357 40.988C69.9351 40.988 67.4128 43.5105 67.4128 46.6109C67.4128 49.7113 69.9351 52.2338 73.0357 52.2338C76.1362 52.2338 78.6586 49.7114 78.6586 46.6109ZM54.2464 49.1747L53.1371 52.6999L57.5525 57.1153L61.0402 55.9686L54.2464 49.1747ZM49.645 57.0364L53.2241 60.6155C53.2573 60.6489 53.3127 60.6492 53.3462 60.6155L55.3644 58.5973L51.663 54.8959L49.645 56.9141C49.6112 56.9478 49.6112 57.0027 49.645 57.0364ZM71.686 31.2312C71.2931 31.2312 70.9241 31.3841 70.644 31.664L55.4883 46.7462L63.455 54.7127L66.5526 51.6521C65.4667 50.259 64.8176 48.5099 64.8176 46.6107C64.8176 42.0793 68.5043 38.3926 73.0357 38.3926C74.9383 38.3926 76.6904 39.0444 78.0849 40.1338C78.1041 40.112 78.1227 40.0899 78.1435 40.069L78.5985 39.6139C79.1719 39.0406 79.1719 38.1075 78.5985 37.5342L72.7263 31.6618C72.4481 31.3841 72.0787 31.2312 71.686 31.2312ZM81.4736 26.4695L76.3388 31.6043L78.6558 33.9217L83.7908 28.7867L81.4736 26.4695ZM88.3673 27.6758C88.6369 27.4064 88.7851 27.0482 88.7851 26.6673C88.7851 26.2863 88.6369 25.9282 88.3673 25.6586L84.6015 21.8928C84.3321 21.6235 83.974 21.4752 83.593 21.4752C83.2121 21.4752 82.8539 21.6235 82.5842 21.8934C82.3148 22.1627 82.1666 22.5209 82.1666 22.902C82.1666 23.2832 82.3148 23.6411 82.5844 23.9105L86.3503 27.6758C86.9064 28.2318 87.8111 28.2318 88.3673 27.6758ZM75.7644 73.9807C79.016 69.8959 80.7347 64.9783 80.7347 59.7598C80.7347 57.0608 80.2584 54.4257 79.3205 51.8979C78.0631 53.3904 76.286 54.431 74.2701 54.736C74.7694 56.3617 75.0253 58.0452 75.0253 59.7598C75.0253 66.8806 70.5509 73.2781 63.9771 75.8111C64.4032 76.7018 64.6423 77.6984 64.6423 78.7499V81.6133C68.9917 80.2468 72.9031 77.5753 75.7644 73.9807ZM42.4991 96.4383V96.5248H73.1175V96.4383C73.1175 94.8643 71.8369 93.5836 70.2628 93.5836H45.3536C43.7797 93.5836 42.4991 94.8643 42.4991 96.4383ZM62.0472 90.9884V78.7499C62.0472 76.4127 60.1458 74.5111 57.8084 74.5111C55.471 74.5111 53.5696 76.4127 53.5696 78.7499V90.9884H62.0472ZM37.3681 80.5079L39.4475 78.4285L31.8317 70.8127L29.7522 72.8921L37.3681 80.5079Z" fill="black"/>
<path d="M73.0322 47.9085C72.3154 47.9085 71.7346 47.3275 71.7346 46.6109C71.7346 45.8943 72.3154 45.3133 73.0322 45.3133H73.0339C73.7506 45.3133 74.3307 45.8943 74.3307 46.6109C74.3307 47.3275 73.7488 47.9085 73.0322 47.9085Z" fill="black"/>
<path d="M57.8091 78.5311C58.1501 78.5311 58.4838 78.6695 58.726 78.9117C58.9667 79.1539 59.1067 79.4878 59.1067 79.8287C59.1067 80.1712 58.9665 80.5051 58.726 80.7473C58.484 80.9878 58.1501 81.1262 57.8091 81.1262C57.4667 81.1262 57.1326 80.9878 56.8904 80.7473C56.6497 80.5051 56.5115 80.1712 56.5115 79.8287C56.5115 79.4878 56.6499 79.1522 56.8904 78.9117C57.1326 78.6695 57.4665 78.5311 57.8091 78.5311Z" fill="black"/>
</g>
<defs>
<clipPath id="clip0_2_28">
<rect width="80.24" height="80.24" rx="13" transform="matrix(-1 0 0 1 99.12 18.88)" fill="white"/>
</clipPath>
</defs>
</svg>
