<svg width="53" height="53" viewBox="0 0 53 53" fill="none" xmlns="http://www.w3.org/2000/svg">
<g filter="url(#filter0_d_2_87)">
<circle r="22.5" transform="matrix(-1 0 0 1 25.5 22.5)" fill="white"/>
<g clip-path="url(#clip0_2_87)">
<path d="M20.018 10.521V12.527L32.43 22.315C32.551 22.416 32.625 22.566 32.625 22.725C32.625 22.884 32.551 23.036 32.43 23.135L20.018 32.925V34.93C20.018 35.129 20.133 35.313 20.315 35.399C20.493 35.485 20.71 35.463 20.864 35.338L36.336 23.136C36.458 23.036 36.53 22.885 36.53 22.726C36.53 22.567 36.458 22.416 36.336 22.316L20.864 10.113C20.71 9.98704 20.493 9.96504 20.315 10.052C20.134 10.139 20.018 10.322 20.018 10.521Z" fill="black"/>
</g>
</g>
<defs>
<filter id="filter0_d_2_87" x="0" y="0" width="53" height="53" filterUnits="userSpaceOnUse" color-interpolation-filters="sRGB">
<feFlood flood-opacity="0" result="BackgroundImageFix"/>
<feColorMatrix in="SourceAlpha" type="matrix" values="0 0 0 0 0 0 0 0 0 0 0 0 0 0 0 0 0 0 127 0" result="hardAlpha"/>
<feOffset dx="1" dy="4"/>
<feGaussianBlur stdDeviation="2"/>
<feComposite in2="hardAlpha" operator="out"/>
<feColorMatrix type="matrix" values="0 0 0 0 0 0 0 0 0 0 0 0 0 0 0 0 0 0 0.25 0"/>
<feBlend mode="normal" in2="BackgroundImageFix" result="effect1_dropShadow_2_87"/>
<feBlend mode="normal" in="SourceGraphic" in2="effect1_dropShadow_2_87" result="shape"/>
</filter>
<clipPath id="clip0_2_87">
<rect width="25.451" height="25.451" fill="white" transform="matrix(-1 0 0 1 41 10)"/>
</clipPath>
</defs>
</svg>
