<svg width="31" height="31" viewBox="0 0 31 31" fill="none" xmlns="http://www.w3.org/2000/svg">
<path d="M15.5 0C11.2892 0 10.7635 0.019375 9.11012 0.093C7.45937 0.1705 6.33562 0.430125 5.3475 0.81375C4.32837 1.209 3.46296 1.73987 2.60142 2.60142C1.73987 3.46296 1.20771 4.32708 0.81375 5.3475C0.430125 6.33562 0.169208 7.45937 0.093 9.11012C0.0155 10.7635 0 11.2892 0 15.5C0 19.7108 0.019375 20.2365 0.093 21.8899C0.1705 23.5393 0.430125 24.6644 0.81375 25.6525C1.209 26.6703 1.73987 27.537 2.60142 28.3986C3.46296 29.2588 4.32708 29.7923 5.3475 30.1863C6.33692 30.5686 7.46067 30.8308 9.11012 30.907C10.7635 30.9845 11.2892 31 15.5 31C19.7108 31 20.2365 30.9806 21.8899 30.907C23.5393 30.8295 24.6644 30.5686 25.6525 30.1863C26.6703 29.791 27.537 29.2588 28.3986 28.3986C29.2588 27.537 29.7923 26.6742 30.1863 25.6525C30.5686 24.6644 30.8308 23.5393 30.907 21.8899C30.9845 20.2365 31 19.7108 31 15.5C31 11.2892 30.9806 10.7635 30.907 9.11012C30.8295 7.46067 30.5686 6.33433 30.1863 5.3475C29.791 4.32837 29.2588 3.46296 28.3986 2.60142C27.537 1.73987 26.6742 1.20771 25.6525 0.81375C24.6644 0.430125 23.5393 0.169208 21.8899 0.093C20.2365 0.0155 19.7108 0 15.5 0ZM15.5 2.79C19.6372 2.79 20.1306 2.81067 21.7646 2.88171C23.2758 2.95275 24.096 3.20333 24.6411 3.41775C25.367 3.69804 25.8811 4.03387 26.4262 4.57508C26.9674 5.11758 27.3032 5.63296 27.5835 6.35887C27.7954 6.90396 28.0485 7.72417 28.117 9.23542C28.1906 10.8707 28.2074 11.3615 28.2074 15.5C28.2074 19.6385 28.188 20.1306 28.1118 21.7646C28.033 23.2758 27.7812 24.096 27.568 24.6411C27.2787 25.367 26.9493 25.8811 26.4068 26.4262C25.8656 26.9674 25.3425 27.3032 24.6243 27.5835C24.0818 27.7954 23.2487 28.0485 21.7375 28.117C20.0919 28.1906 19.6075 28.2074 15.4612 28.2074C11.3137 28.2074 10.8293 28.188 9.18504 28.1118C7.6725 28.033 6.83937 27.7812 6.29687 27.568C5.56192 27.2787 5.05687 26.9493 4.51567 26.4068C3.97187 25.8656 3.62442 25.3425 3.35317 24.6243C3.14004 24.0818 2.88946 23.2487 2.81067 21.7375C2.75254 20.11 2.73187 19.6075 2.73187 15.4806C2.73187 11.3525 2.75254 10.8487 2.81067 9.20183C2.88946 7.69058 3.14004 6.85875 3.35317 6.31625C3.62442 5.58 3.97187 5.07625 4.51567 4.53246C5.05687 3.99125 5.56192 3.6425 6.29687 3.37254C6.83937 3.15812 7.65442 2.90625 9.16567 2.82875C10.8125 2.77062 11.2969 2.75125 15.4419 2.75125L15.5 2.79V2.79ZM15.5 7.54075C11.1019 7.54075 7.54075 11.1057 7.54075 15.5C7.54075 19.8981 11.1057 23.4593 15.5 23.4593C19.8981 23.4593 23.4593 19.8942 23.4593 15.5C23.4593 11.1019 19.8942 7.54075 15.5 7.54075ZM15.5 20.6667C12.6454 20.6667 10.3333 18.3546 10.3333 15.5C10.3333 12.6454 12.6454 10.3333 15.5 10.3333C18.3546 10.3333 20.6667 12.6454 20.6667 15.5C20.6667 18.3546 18.3546 20.6667 15.5 20.6667ZM25.6344 7.22687C25.6344 8.25375 24.8 9.08687 23.7744 9.08687C22.7475 9.08687 21.9144 8.25246 21.9144 7.22687C21.9144 6.20129 22.7488 5.36817 23.7744 5.36817C24.7987 5.36688 25.6344 6.20129 25.6344 7.22687Z" fill="white"/>
</svg>
