<svg width="44" height="44" viewBox="0 0 44 44" fill="none" xmlns="http://www.w3.org/2000/svg">
<path d="M1.90474 20.0951H37.4973L29.0044 11.6017C28.2604 10.8581 28.2604 9.65185 29.0044 8.90837C29.7484 8.16433 30.9547 8.16433 31.6976 8.90837L43.442 20.6529C44.186 21.3965 44.186 22.6029 43.442 23.3463L31.6976 35.0914C31.3257 35.4635 30.8383 35.6493 30.351 35.6493C29.8637 35.6493 29.3763 35.4635 29.0044 35.0914C28.2604 34.3478 28.2604 33.1416 29.0044 32.3982L37.4973 23.9043H1.90474C0.852931 23.9043 -1.42136e-06 23.0515 -1.42136e-06 21.9997C-1.42136e-06 20.9479 0.852821 20.0951 1.90474 20.0951Z" fill="#D80027"/>
</svg>
