<svg width="82" height="82" viewBox="0 0 82 82" fill="none" xmlns="http://www.w3.org/2000/svg">
<path d="M40.9992 7C22.2514 7 7 22.2524 7 41.0001C7 59.7474 22.2514 75 40.9992 75C59.7473 75 75 59.7474 75 41.0001C75 22.2524 59.7472 7 40.9992 7ZM40.9992 71.6829C24.0818 71.6829 10.3172 57.9187 10.3172 41.0001C10.3172 24.0818 24.0818 10.3172 40.9992 10.3172C57.9186 10.3172 71.6828 24.0818 71.6828 41.0001C71.6828 57.9187 57.9186 71.6829 40.9992 71.6829ZM50.7805 59.5336V64.0347C50.7805 64.2242 50.6267 64.3764 50.4405 64.3764H33.9162C33.7279 64.3764 33.5761 64.2234 33.5761 64.0347V59.5336C33.5761 59.3456 33.7287 59.1935 33.9162 59.1935H38.6765V35.2015H33.8673C33.6789 35.2015 33.5291 35.0493 33.5291 34.8626V30.2589C33.5291 30.0699 33.6798 29.9193 33.8673 29.9193H45.1424C45.3303 29.9193 45.4825 30.0707 45.4825 30.2589V59.1935H50.4405C50.6267 59.1935 50.7805 59.3456 50.7805 59.5336ZM35.7631 21.5134C35.7631 18.6505 38.0826 16.3303 40.9462 16.3303C43.8078 16.3303 46.1288 18.6506 46.1288 21.5134C46.1288 24.3761 43.8078 26.6965 40.9462 26.6965C38.0818 26.6965 35.7631 24.3763 35.7631 21.5134Z" fill="black"/>
</svg>
