<svg width="31" height="31" viewBox="0 0 31 31" fill="none" xmlns="http://www.w3.org/2000/svg">
<path d="M20.0092 13.9601L13.7646 10.7176C13.2788 10.4652 12.6863 10.4849 12.2182 10.7693C11.7503 11.0535 11.4597 11.5701 11.4597 12.1176V18.6241C11.4597 19.1723 11.7509 19.6894 12.2201 19.9737C12.4665 20.1228 12.7491 20.2017 13.0373 20.2017C13.2909 20.2017 13.5436 20.1397 13.7681 20.0223L20.0127 16.7587C20.5359 16.4854 20.8604 15.9488 20.8598 15.3582C20.8591 14.7679 20.5331 14.2322 20.0092 13.9601ZM19.4406 15.664H19.4406L13.1959 18.9277C13.0919 18.9821 12.9601 18.9779 12.8599 18.9172C12.758 18.8555 12.6947 18.7432 12.6947 18.624V12.1176C12.6947 11.9987 12.7578 11.8866 12.8594 11.8249C12.9137 11.792 12.9755 11.7754 13.0376 11.7754C13.0918 11.7754 13.1461 11.788 13.1952 11.8136L19.4399 15.0562C19.5537 15.1153 19.6245 15.2317 19.6247 15.3597C19.6248 15.488 19.5542 15.6047 19.4406 15.664Z" fill="white"/>
<path d="M29.6949 6.42684V6.4269C28.4891 4.99345 26.3685 4.40869 22.3758 4.40869H8.62393C4.53581 4.40869 2.37798 5.03154 1.17588 6.55859C0 8.05252 0 10.0956 0 12.9234V18.0765C0 20.3991 0.19599 22.7722 1.61812 24.3961C2.92956 25.8936 5.15569 26.5911 8.62393 26.5911H22.3759C25.8373 26.5911 27.7814 26.0817 29.0864 24.8329C30.4277 23.5493 31 21.5286 31 18.0765V12.9234C31 9.93608 30.9092 7.87004 29.6949 6.42684ZM29.765 18.0765C29.765 21.1588 29.3066 22.9126 28.2324 23.9406C27.1819 24.9459 25.4852 25.3561 22.3759 25.3561H8.62393C2.30187 25.3561 1.2351 23.1104 1.2351 18.0765V12.9235C1.2351 10.344 1.2351 8.48035 2.14639 7.32263C3.08504 6.13016 4.9617 5.64379 8.62399 5.64379V5.64373H22.3759C25.9602 5.64373 27.8069 6.10098 28.7498 7.22194V7.222C29.6944 8.34448 29.765 10.2082 29.765 12.9234V18.0765V18.0765Z" fill="white"/>
</svg>
