<svg width="35" height="45" viewBox="0 0 35 45" fill="none" xmlns="http://www.w3.org/2000/svg">
<path d="M17.0121 44.2801C7.63165 44.2801 1.31169e-05 37.1048 1.31169e-05 28.2852C-0.00404523 25.2173 0.933709 22.2134 2.70071 19.6343L15.6432 0.703066C15.7905 0.487447 15.993 0.310071 16.2322 0.187225C16.4714 0.0643786 16.7396 0 17.0121 0C17.2847 0 17.5529 0.0643786 17.792 0.187225C18.0312 0.310071 18.2338 0.487447 18.381 0.703066L31.3241 19.6363L31.3387 19.6584C33.0954 22.2324 34.0273 25.2273 34.0232 28.2857C34.0242 37.1048 26.3926 44.2801 17.0121 44.2801ZM17.0121 4.36011L5.43803 21.2909C4.00983 23.3763 3.25197 25.8048 3.25539 28.2852C3.25539 35.4177 9.42653 41.2199 17.0121 41.2199C24.5977 41.2199 30.7689 35.4177 30.7689 28.2857C30.7689 25.7951 30.0148 23.3779 28.5883 21.2948L28.5726 21.2717L17.0121 4.36011V4.36011Z" fill="#FF1414"/>
<path d="M17.0122 37.5465C11.5679 37.5465 7.13876 33.3822 7.13876 28.2634C7.13876 28.1295 7.16682 27.9969 7.22134 27.8731C7.27585 27.7494 7.35576 27.637 7.45649 27.5423C7.55722 27.4475 7.6768 27.3724 7.80841 27.3212C7.94003 27.2699 8.08109 27.2435 8.22354 27.2435C8.366 27.2435 8.50706 27.2699 8.63867 27.3212C8.77028 27.3724 8.88986 27.4475 8.99059 27.5423C9.09133 27.637 9.17123 27.7494 9.22574 27.8731C9.28026 27.9969 9.30832 28.1295 9.30832 28.2634C9.30832 32.2575 12.7641 35.5067 17.0116 35.5067C17.2993 35.5066 17.5753 35.614 17.7788 35.8052C17.9823 35.9965 18.0966 36.2559 18.0967 36.5264C18.0968 36.7969 17.9825 37.0563 17.7791 37.2476C17.5758 37.439 17.2999 37.5465 17.0122 37.5465V37.5465Z" fill="#FF1414"/>
</svg>
