<svg width="53" height="53" viewBox="0 0 53 53" fill="none" xmlns="http://www.w3.org/2000/svg">
<g filter="url(#filter0_d_2_81)">
<circle cx="25.5" cy="22.5" r="22.5" fill="white"/>
<g clip-path="url(#clip0_2_81)">
<path d="M30.982 10.521V12.527L18.57 22.315C18.449 22.416 18.375 22.566 18.375 22.725C18.375 22.884 18.449 23.036 18.57 23.135L30.982 32.925V34.93C30.982 35.129 30.867 35.313 30.685 35.399C30.507 35.485 30.29 35.463 30.136 35.338L14.664 23.136C14.542 23.036 14.47 22.885 14.47 22.726C14.47 22.567 14.542 22.416 14.664 22.316L30.136 10.113C30.29 9.98704 30.507 9.96504 30.685 10.052C30.866 10.139 30.982 10.322 30.982 10.521Z" fill="black"/>
</g>
</g>
<defs>
<filter id="filter0_d_2_81" x="0" y="0" width="53" height="53" filterUnits="userSpaceOnUse" color-interpolation-filters="sRGB">
<feFlood flood-opacity="0" result="BackgroundImageFix"/>
<feColorMatrix in="SourceAlpha" type="matrix" values="0 0 0 0 0 0 0 0 0 0 0 0 0 0 0 0 0 0 127 0" result="hardAlpha"/>
<feOffset dx="1" dy="4"/>
<feGaussianBlur stdDeviation="2"/>
<feComposite in2="hardAlpha" operator="out"/>
<feColorMatrix type="matrix" values="0 0 0 0 0 0 0 0 0 0 0 0 0 0 0 0 0 0 0.25 0"/>
<feBlend mode="normal" in2="BackgroundImageFix" result="effect1_dropShadow_2_81"/>
<feBlend mode="normal" in="SourceGraphic" in2="effect1_dropShadow_2_81" result="shape"/>
</filter>
<clipPath id="clip0_2_81">
<rect width="25.451" height="25.451" fill="white" transform="translate(10 10)"/>
</clipPath>
</defs>
</svg>
