<svg width="32" height="43" viewBox="0 0 32 43" fill="none" xmlns="http://www.w3.org/2000/svg">
<path d="M15.9906 43C7.43163 43 0.468365 36.0321 0.468365 27.4674C0.464662 24.4882 1.32029 21.5713 2.93253 19.0667L14.7415 0.682741C14.8759 0.473355 15.0607 0.301106 15.2789 0.181812C15.4972 0.0625174 15.7419 0 15.9906 0C16.2392 0 16.4839 0.0625174 16.7022 0.181812C16.9204 0.301106 17.1052 0.473355 17.2396 0.682741L29.0491 19.0686L29.0624 19.0901C30.6653 21.5897 31.5155 24.498 31.5118 27.4679C31.5128 36.0321 24.5495 43 15.9906 43ZM15.9906 4.23406L5.43012 20.6754C4.127 22.7005 3.43552 25.0588 3.43864 27.4674C3.43864 34.3938 9.06931 40.0282 15.9906 40.0282C22.9118 40.0282 28.5425 34.3938 28.5425 27.4679C28.5425 25.0494 27.8545 22.7021 26.5529 20.6792L26.5386 20.6567L15.9906 4.23406V4.23406Z" fill="#FF1414"/>
<path d="M15.9906 36.4611C11.0231 36.4611 6.98187 32.4172 6.98187 27.4464C6.98187 27.3164 7.00747 27.1876 7.05721 27.0674C7.10695 26.9472 7.17986 26.8381 7.27177 26.7461C7.36368 26.6541 7.47279 26.5812 7.59288 26.5314C7.71296 26.4816 7.84167 26.456 7.97165 26.456C8.10162 26.456 8.23033 26.4816 8.35041 26.5314C8.4705 26.5812 8.57961 26.6541 8.67152 26.7461C8.76343 26.8381 8.83633 26.9472 8.88608 27.0674C8.93582 27.1876 8.96142 27.3164 8.96142 27.4464C8.96142 31.325 12.1146 34.4803 15.9901 34.4803C16.2526 34.4802 16.5044 34.5845 16.69 34.7702C16.8757 34.9559 16.98 35.2078 16.9801 35.4705C16.9802 35.7331 16.8759 35.9851 16.6904 36.1709C16.5048 36.3567 16.2531 36.4611 15.9906 36.4611V36.4611Z" fill="#FF1414"/>
</svg>
