<svg width="31" height="30" viewBox="0 0 31 30" fill="none" xmlns="http://www.w3.org/2000/svg">
<g clip-path="url(#clip0_2_119)">
<path d="M30.7223 5.47236C30.4977 5.32529 30.2012 5.33273 29.9852 5.49152C29.7665 5.65178 29.4116 5.78959 29.0081 5.90262C30.1128 4.65451 30.1356 3.82014 30.1226 3.62373C30.1078 3.40102 29.9688 3.20373 29.7603 3.10863C29.5508 3.01418 29.3056 3.03656 29.1192 3.16752C27.7937 4.09963 26.474 4.30266 25.6807 4.32533C24.4494 3.19201 22.8529 2.5708 21.1555 2.5708C17.5062 2.5708 14.5373 5.48197 14.5373 9.06012C14.5373 9.3498 14.5571 9.63891 14.5959 9.92561C8.36614 9.82301 3.30981 4.05211 3.25762 3.99141C3.12538 3.83807 2.92461 3.75463 2.717 3.77379C2.51126 3.79113 2.32683 3.90475 2.22366 4.07783C0.467498 7.02639 1.54033 9.62812 2.61752 11.1868C2.50629 11.1229 2.41517 11.064 2.35281 11.0194C2.16251 10.8825 1.90857 10.8598 1.69575 10.9611C1.48257 11.0628 1.34634 11.2709 1.34234 11.5007C1.29475 14.3282 2.66008 15.9826 3.98666 16.9201C3.84305 16.9392 3.70833 17.0055 3.60728 17.112C3.4553 17.2716 3.40184 17.4973 3.46735 17.7051C4.3873 20.6193 6.61827 21.6515 8.0915 22.0168C5.11138 24.1929 0.79215 23.4826 0.744257 23.4739C0.45787 23.4252 0.171242 23.5713 0.0535384 23.8303C-0.063862 24.0888 0.0164838 24.392 0.248802 24.5633C3.42533 26.9094 7.22441 27.4293 9.96839 27.4293C12.0435 27.4293 13.5148 27.1318 13.6563 27.1022C27.4983 23.9276 27.9371 11.6883 27.9087 9.60258C30.5054 7.26299 30.9138 6.36498 30.9774 6.14162C31.0491 5.88885 30.9466 5.61978 30.7223 5.47236ZM26.8394 8.89178C26.6983 9.01734 26.6239 9.19852 26.6368 9.38385C26.639 9.41672 26.8509 12.7342 25.3233 16.4307C23.2823 21.3696 19.2587 24.5591 13.377 25.908C13.314 25.9208 7.87299 27.0114 3.09662 24.8129C5.13857 24.7301 7.96635 24.1735 9.9561 22.0118C10.1223 21.8315 10.1618 21.5528 10.0596 21.3325C9.95731 21.1128 9.73026 20.9511 9.48129 20.9511C9.48008 20.9511 9.47881 20.9511 9.47699 20.9511C9.30988 20.9511 6.42925 20.9302 5.04902 18.2378C5.6072 18.2612 6.27449 18.2293 6.81226 17.9896C7.06002 17.8789 7.20642 17.6321 7.17585 17.37C7.14527 17.1078 6.9445 16.8966 6.67755 16.8422C6.52279 16.8105 3.18708 16.0901 2.6728 12.5828C3.18527 12.7894 3.82409 12.9495 4.45953 12.8573C4.7036 12.8221 4.90346 12.6523 4.97261 12.423C5.04151 12.194 4.96613 11.9466 4.77983 11.7896C4.63554 11.6684 1.4905 8.96115 2.93067 5.46311C4.63554 7.18178 9.49758 11.4612 15.3932 11.1342C15.5813 11.1237 15.755 11.0322 15.8667 10.8851C15.9783 10.7381 16.0163 10.5506 15.9702 10.3737C15.859 9.94506 15.8025 9.5032 15.8025 9.06018C15.8025 6.15709 18.2037 3.79535 21.1554 3.79535C22.599 3.79535 23.9528 4.35287 24.968 5.36543C25.0845 5.48174 25.2439 5.54836 25.4114 5.55141C25.9961 5.5568 26.959 5.4958 28.047 5.10416C27.7226 5.47184 27.2689 5.90232 26.6343 6.38455C26.415 6.55137 26.3344 6.83777 26.436 7.0892C26.538 7.34121 26.8027 7.50053 27.0757 7.47633C27.2036 7.46648 27.8236 7.41357 28.5502 7.27096C28.1338 7.69928 27.5788 8.23383 26.8394 8.89178Z" fill="white"/>
</g>
<defs>
<clipPath id="clip0_2_119">
<rect width="31" height="30" fill="white"/>
</clipPath>
</defs>
</svg>
